<?xml version="1.0" encoding="UTF-8" standalone="no"?>
<!-- Created with Inkscape (http://www.inkscape.org/) -->

<svg
   version="1.1"
   id="svg516"
   xml:space="preserve"
   width="480"
   height="480"
   viewBox="0 0 480 480"
   sodipodi:docname="Pitamer__.svg"
   inkscape:version="1.1.1 (c3084ef, 2021-09-22)"
   xmlns:inkscape="http://www.inkscape.org/namespaces/inkscape"
   xmlns:sodipodi="http://sodipodi.sourceforge.net/DTD/sodipodi-0.dtd"
   xmlns="http://www.w3.org/2000/svg"
   xmlns:svg="http://www.w3.org/2000/svg"><defs
     id="defs520"><clipPath
       clipPathUnits="userSpaceOnUse"
       id="clipPath530"><path
         d="M 0,360 H 360 V 0 H 0 Z"
         id="path528" /></clipPath><clipPath
       clipPathUnits="userSpaceOnUse"
       id="clipPath638"><path
         d="m 167.112,197.66 h 4.934 v -29.365 h -4.934 z"
         id="path636" /></clipPath><clipPath
       clipPathUnits="userSpaceOnUse"
       id="clipPath654"><path
         d="m 184.748,195.755 h 4.486 v -26.017 h -4.486 z"
         id="path652" /></clipPath><clipPath
       clipPathUnits="userSpaceOnUse"
       id="clipPath702"><path
         d="m 168.133,107.557 h 24.589 v -3.748 h -24.589 z"
         id="path700" /></clipPath><clipPath
       clipPathUnits="userSpaceOnUse"
       id="clipPath718"><path
         d="M 0,360 H 360 V 0 H 0 Z"
         id="path716" /></clipPath><clipPath
       clipPathUnits="userSpaceOnUse"
       id="clipPath726"><path
         d="M 109.322,168.164 H 246.823 V 66.7271 H 109.322 Z"
         id="path724" /></clipPath></defs><sodipodi:namedview
     id="namedview518"
     pagecolor="#ffffff"
     bordercolor="#666666"
     borderopacity="1.0"
     inkscape:pageshadow="2"
     inkscape:pageopacity="0.0"
     inkscape:pagecheckerboard="0"
     showgrid="false"
     inkscape:zoom="0.70649819"
     inkscape:cx="108.28053"
     inkscape:cy="215.85335"
     inkscape:window-width="1792"
     inkscape:window-height="1023"
     inkscape:window-x="0"
     inkscape:window-y="25"
     inkscape:window-maximized="1"
     inkscape:current-layer="g522" /><g
     id="g522"
     inkscape:groupmode="layer"
     inkscape:label="Pitamer"
     transform="matrix(1.3333333,0,0,-1.3333333,0,480)"><g
       id="g1053"
       transform="matrix(0.23404376,0,0,-0.23404376,-24.400824,154.90704)">
</g><g
       id="g1055"
       transform="matrix(0.23404376,0,0,-0.23404376,-24.400824,154.90704)">
</g><g
       id="g1057"
       transform="matrix(0.23404376,0,0,-0.23404376,-24.400824,154.90704)">
</g><g
       id="g1059"
       transform="matrix(0.23404376,0,0,-0.23404376,-24.400824,154.90704)">
</g><g
       id="g1061"
       transform="matrix(0.23404376,0,0,-0.23404376,-24.400824,154.90704)">
</g><g
       id="g1063"
       transform="matrix(0.23404376,0,0,-0.23404376,-24.400824,154.90704)">
</g><g
       id="g1065"
       transform="matrix(0.23404376,0,0,-0.23404376,-24.400824,154.90704)">
</g><g
       id="g1067"
       transform="matrix(0.23404376,0,0,-0.23404376,-24.400824,154.90704)">
</g><g
       id="g1069"
       transform="matrix(0.23404376,0,0,-0.23404376,-24.400824,154.90704)">
</g><g
       id="g1071"
       transform="matrix(0.23404376,0,0,-0.23404376,-24.400824,154.90704)">
</g><g
       id="g1073"
       transform="matrix(0.23404376,0,0,-0.23404376,-24.400824,154.90704)">
</g><g
       id="g1075"
       transform="matrix(0.23404376,0,0,-0.23404376,-24.400824,154.90704)">
</g><g
       id="g1077"
       transform="matrix(0.23404376,0,0,-0.23404376,-24.400824,154.90704)">
</g><g
       id="g1079"
       transform="matrix(0.23404376,0,0,-0.23404376,-24.400824,154.90704)">
</g><g
       id="g1081"
       transform="matrix(0.23404376,0,0,-0.23404376,-24.400824,154.90704)">
</g><path
       style="fill:#231f20;fill-opacity:1;stroke:#231f20;stroke-width:2.25;stroke-miterlimit:4;stroke-dasharray:none;stroke-opacity:1"
       d="M 344.22266,2.4638459 333.56317,56.533927 C 330.30953,73.03794 319.9681,87.974303 300.67259,91.979801 L 182.04765,117.61274 63.422072,91.979801 C 44.126554,87.774087 32.294275,66.887493 30.531486,56.533927 L 21.325564,2.4638459 Z"
       id="path1035"
       sodipodi:nodetypes="cscccscc" /><path
       style="fill:#faac6b;fill-opacity:1;stroke:#231f20;stroke-width:3.00000008;stroke-miterlimit:4;stroke-dasharray:none;stroke-opacity:1"
       d="m 245.19749,103.99511 v 0 c 0,0 -24.11971,7.40976 -24.11971,17.02189 0,9.61272 0,16.02081 0,16.02081 h -39.03013 -39.03013 c 0,0 0,-6.40809 0,-16.02081 0,-9.61213 -24.11972,-17.02189 -24.11972,-17.02189 0,0 0,0 0,-0.20022 0,-20.426138 28.28561,-36.847377 63.14985,-36.847377 34.86359,0.200213 63.14984,16.621456 63.14984,37.047597 z"
       id="path1037" /><g
       id="g10133"
       transform="translate(1.4999996,-1.5)"><g
         id="g526"
         clip-path="url(#clipPath530)"
         transform="translate(0.96904444,51.359355)"><g
           id="g532"
           transform="translate(136.5278,242.4893)"><path
             d="m 0,0 c 0.535,-28.535 -1.572,-57.029 -6.451,-85.152 -1.091,-6.294 8.544,-8.997 9.643,-2.659 C 8.223,-58.805 10.552,-29.436 10,0 9.88,6.427 -0.121,6.448 0,0"
             style="fill:#fcbd82;fill-opacity:1;fill-rule:nonzero;stroke:none"
             id="path534" /></g><g
           id="g536"
           transform="translate(156.4282,199.4072)"><path
             d="m 0,0 c -2.395,-12.033 -4.79,-24.066 -7.185,-36.1 -1.229,-6.178 -2.459,-12.358 -3.689,-18.537 -0.472,-2.373 -1.821,-5.666 -1.675,-8.095 -0.432,-1.332 -0.151,-1.039 0.842,0.878 1.502,0.629 3.005,1.257 4.507,1.885 0.293,-0.061 0.586,-0.124 0.879,-0.185 0.769,-0.485 0.772,-0.504 0.01,-0.059 -0.551,-0.107 -0.68,0.524 0.022,-0.209 0.232,-0.243 -1.158,1.901 -1.424,2.411 -1.057,2.023 -1.867,4.165 -2.81,6.24 -2.106,4.635 -5.154,8.769 -8.672,12.443 -2.895,3.023 -6.153,5.664 -9.237,8.486 -3.627,3.32 -5.573,5.418 -7.404,9.131 -5.767,11.699 -22.879,5.307 -23.293,-6.31 -0.195,-5.468 -0.39,-10.937 -0.585,-16.406 -0.241,-6.752 5.917,-12.5 12.5,-12.5 6.972,0 12.258,5.727 12.5,12.5 0.195,5.469 0.39,10.938 0.585,16.406 -7.765,-2.102 -15.529,-4.205 -23.294,-6.308 5.198,-10.545 15.388,-15.809 22.398,-24.72 -0.915,1.163 1.055,-1.652 1.221,-1.939 0.759,-1.321 1.387,-2.706 2.006,-4.096 1.237,-2.774 2.342,-5.594 4.021,-8.143 4.083,-6.198 10.262,-10.563 17.699,-11.472 8.156,-0.997 15.77,2.89 19.659,10.166 3.464,6.482 3.983,14.913 5.4,22.031 3.042,15.285 6.084,30.57 9.126,45.856 C 25.423,-0.032 22.217,6.851 15.376,8.73 9.225,10.421 1.324,6.653 0,0"
             style="fill:#faac6b;fill-opacity:1;fill-rule:nonzero;stroke:none"
             id="path538" /></g><g
           id="g540"
           transform="translate(123.4556,209.312)"><path
             d="m 0,0 c -4.112,-10.259 -9.647,-19.942 -15.908,-29.032 7.616,-0.995 15.231,-1.991 22.847,-2.986 -4.263,13.559 -1.129,28.368 4.61,41.09 2.466,5.466 7.493,6.923 13.073,9.329 6.843,2.953 13.928,5.413 21.068,7.541 6.995,2.085 14.164,4.213 21.519,4.107 7.172,-0.103 14.11,-3.059 20.692,-5.663 5.382,-2.13 7.802,-3.753 9.071,-8.583 1.633,-6.211 1.707,-13.678 2.149,-20.773 1.199,-19.286 1.549,-38.612 1.133,-57.929 -0.346,-16.094 24.654,-16.091 25,0 0.438,20.3 0.026,40.609 -1.322,60.87 -0.599,9.011 -0.687,18.766 -3.745,27.356 -3.365,9.454 -9.715,16.324 -18.895,20.385 -8.911,3.943 -18.131,7.544 -27.838,8.807 C 63.009,55.877 52.621,53.865 42.563,51.064 33.208,48.459 24.112,45.131 15.177,41.344 5.922,37.42 -3.316,33.433 -8.67,24.376 -13.685,15.894 -16.942,5.102 -18.629,-4.56 c -1.996,-11.425 -2.046,-22.951 1.461,-34.104 3.364,-10.7 16.766,-11.815 22.847,-2.986 7.549,10.96 13.482,22.664 18.428,35.004 C 26.62,-0.377 21.365,7.085 15.376,8.73 8.25,10.688 2.522,6.292 0,0"
             style="fill:#faac6b;fill-opacity:1;fill-rule:nonzero;stroke:none"
             id="path542" /></g><g
           id="g544"
           transform="translate(179.5537,214.6255)"><path
             d="m 0,0 c 2.279,-25.393 0.216,-50.781 -6.703,-75.339 -1.096,-3.892 -2.22,-11.432 -4.866,-13.666 -1.423,-1.201 -6.01,-2.511 -7.466,-1.478 -9.578,6.796 -17.733,17.035 -25.076,26.171 -7.069,8.795 -21.295,1.183 -21.339,-8.839 -0.076,-17.458 5.213,-35.177 15.591,-49.303 5.089,-6.927 11.004,-13.73 18.594,-18.003 8.766,-4.932 18.788,-5.489 28.585,-6.219 8.935,-0.667 18.306,-1.052 26.82,2.22 7.629,2.933 13.931,7.989 18.988,14.356 11.249,14.163 17.987,31.388 22.292,48.811 3.859,15.619 -20.243,22.282 -24.107,6.646 -3.218,-13.029 -7.713,-25.356 -15.174,-36.593 -2.681,-4.039 -5.873,-7.827 -10.295,-9.767 -4.088,-1.793 -11.53,-1.175 -16.801,-0.804 -5.811,0.409 -12.387,0.243 -17.69,2.937 -4.727,2.403 -8.609,7.377 -11.516,11.719 -6.863,10.248 -10.34,21.848 -10.287,34 -7.113,-2.946 -14.226,-5.892 -21.339,-8.839 5.048,-6.28 10.384,-12.311 16.077,-18.016 5.023,-5.035 10.296,-10.431 16.822,-13.459 9.312,-4.324 18.154,-2.178 27.114,1.827 7.915,3.538 12.42,9.722 15.391,17.662 C 24.628,-64.548 27.796,-31.143 25,0 24.396,6.724 19.687,12.5 12.5,12.5 6.206,12.5 -0.607,6.763 0,0"
             style="fill:#faac6b;fill-opacity:1;fill-rule:nonzero;stroke:none"
             id="path546" /></g><g
           id="g548"
           transform="translate(213.8066,120.666)"><path
             d="m 0,0 c -0.562,-2.148 -1.188,-4.275 -1.925,-6.37 -0.315,-0.898 -0.659,-1.783 -0.995,-2.673 -0.525,-1.295 -0.47,-1.178 0.165,0.352 -0.254,-0.581 -0.516,-1.159 -0.785,-1.733 -2.731,-5.926 -1.878,-13.74 4.484,-17.102 5.507,-2.91 14.182,-1.856 17.103,4.484 2.448,5.314 4.579,10.732 6.06,16.396 C 25.76,-0.328 22.018,7.218 15.377,8.73 8.842,10.219 1.771,6.769 0,0"
             style="fill:#faac6b;fill-opacity:1;fill-rule:nonzero;stroke:none"
             id="path550" /></g><g
           id="g552"
           transform="translate(197.0205,149.9531)"><path
             d="m 0,0 c -4.455,-11.767 -8.911,-23.534 -13.366,-35.302 -0.542,-1.431 -2.174,-5.06 -2.107,-5.218 0.068,-0.159 -0.538,-1.046 0.476,-0.071 0.208,0.199 0.523,0.207 0.79,0.193 -5.954,0.326 -12.029,-0.066 -18.005,0.121 2.103,-7.765 4.206,-15.53 6.309,-23.293 5.526,3.983 11.325,6.572 18.122,7.29 9.72,1.026 17.979,3.888 23.029,12.878 4.038,7.189 7.43,14.822 11.109,22.202 3.806,7.632 8.091,15.448 9.938,23.839 2.089,9.493 1.094,18.735 -0.679,28.188 -0.625,3.337 -1.85,8.77 -2.15,10.986 0.1,-0.749 -0.124,1.593 -0.144,2.044 -0.053,1.229 -0.047,2.461 -0.025,3.69 0.161,9.26 1.792,18.483 1.672,27.745 -0.08,6.236 -1.465,12.822 -7.248,16.284 C 23.632,94.024 18.227,94.1 14.088,91.7 12.896,91.009 11.704,90.132 10.706,89.188 9.88,88.407 6.98,85.779 10.493,88.309 h 12.618 c -0.041,0.018 -0.082,0.035 -0.123,0.052 2.064,-3.597 4.127,-7.195 6.191,-10.793 -0.775,-6.735 1.167,2.827 1.167,3.437 0,6.204 -4.577,11.312 -10.453,12.927 -4.144,1.138 -8.96,0.542 -13.2,0.53 -4.05,-0.011 -8.1,-0.023 -12.15,-0.034 -8.916,-0.027 -17.731,-0.18 -26.563,-1.546 -8.431,-1.303 -16.32,-4.325 -23.969,-8.044 -6.597,-3.208 -16.396,-7.126 -20.095,-13.751 -5.253,-9.41 2.422,-19.333 6.101,-27.753 2.823,-6.459 3.5,-13.409 3.822,-20.375 0.4,-8.647 0.383,-17.313 0.11,-25.964 7.765,2.104 15.529,4.206 23.294,6.31 -3.951,7.885 -7.702,15.882 -11.021,24.055 -3.055,7.522 -7.378,15.925 -7.293,24.162 -8.184,-1.108 -16.369,-2.215 -24.554,-3.323 2.531,-14.962 6.174,-29.668 10.922,-44.08 3.622,-10.996 16.398,-11.431 22.847,-2.986 6.875,9.004 12.677,19.074 18.234,28.931 5.886,10.441 10.993,21.408 14.442,32.904 3.642,12.136 -12.168,20.765 -20.892,12.162 -6.196,-6.109 -11.686,-12.811 -16.696,-19.922 h 21.586 c -1.332,2.381 -1.461,1.548 -0.386,-2.499 -6.964,-1.838 -13.928,-3.677 -20.892,-5.516 6.31,-7.267 8.475,-19.547 10.401,-28.697 2.301,-10.925 2.965,-22.019 2.53,-33.164 -0.296,-7.569 8.315,-14.902 15.822,-12.054 18.084,6.861 17.366,28.663 17.51,44.984 0.074,8.47 -0.201,16.941 -0.089,25.411 0.06,4.559 0.293,9.092 0.623,13.639 0.142,1.956 0.049,1.58 0.384,3.213 0.52,1.451 0.525,1.736 0.016,0.856 1.511,2.342 0.52,1.781 -2.974,-1.685 -4.706,1.915 -9.411,3.83 -14.117,5.745 10.85,-23.148 21.274,-46.516 26.426,-71.693 2.177,-10.639 17.806,-12.02 22.847,-2.986 5.444,9.756 8.6,20.118 9.763,31.204 0.524,4.995 0.185,9.991 0.382,14.997 0.079,1.99 0.151,3.335 0.689,4.975 -0.988,-3.014 1.068,3.458 0.891,2.132 0.152,1.136 1.401,0.6 -0.498,-0.302 -2.103,-0.569 -4.207,-1.138 -6.309,-1.706 -3.994,0.206 -1.183,-0.164 0.659,-1.167 1.436,-0.784 2.851,-1.603 4.262,-2.431 13.905,-8.16 26.501,13.44 12.618,21.587 C 38,64.379 29.114,70.1 20.665,64.945 13.511,60.58 9.907,51.691 8.746,43.783 7.641,36.254 8.726,28.62 7.593,21.12 6.648,14.864 4.406,8.887 1.333,3.38 8.948,2.384 16.563,1.389 24.18,0.394 18.608,27.616 6.964,53.033 -4.767,78.059 c -2.158,4.603 -9.322,7.524 -14.116,5.744 -18.345,-6.81 -16.473,-29.807 -16.428,-45.992 0.024,-8.467 0.27,-16.936 0,-25.402 -0.143,-4.465 -0.199,-9.192 -0.991,-13.599 -0.075,-0.415 -0.504,-1.957 -0.62,-2.558 -0.463,-1.486 -0.545,-1.722 -0.245,-0.706 0.7,0.907 1.638,1.52 2.814,1.839 l 15.824,-12.053 c 0.545,13.943 -0.771,27.981 -3.812,41.604 -2.993,13.408 -7.301,27.409 -16.442,37.935 -5.72,6.587 -19.589,3.691 -20.892,-5.516 -0.857,-6.052 -0.634,-11.526 2.907,-16.765 5.508,-8.15 16.031,-7.885 21.586,0 3.785,5.371 8.11,10.249 12.787,14.862 -6.963,4.054 -13.928,8.108 -20.892,12.162 -3.027,-10.091 -7.599,-19.397 -12.825,-28.52 -5.33,-9.305 -10.817,-18.812 -17.331,-27.343 7.616,-0.995 15.231,-1.99 22.847,-2.986 -4.748,14.413 -8.391,29.118 -10.922,44.08 -1.022,6.047 -8.135,9.793 -13.714,8.953 -6.119,-0.92 -10.773,-5.926 -10.839,-12.276 -0.112,-10.841 4.178,-20.94 8.186,-30.807 4.134,-10.181 8.62,-20.204 13.541,-30.028 5.813,-11.607 22.925,-5.384 23.293,6.308 0.378,11.965 0.556,24.159 -0.93,36.058 -0.794,6.355 -1.973,12.343 -4.407,18.281 -1.324,3.229 -2.861,6.325 -4.408,9.448 -0.528,1.065 -1.114,2.128 -1.564,3.23 -0.488,1.196 -0.255,3.111 -0.431,0.766 l -1.706,-6.309 c 0.244,0.337 0.488,0.674 0.731,1.01 l -4.484,-4.484 c 9.827,6.569 21.377,12.409 33.238,13.791 6.779,0.79 13.678,0.625 20.49,0.644 6.988,0.02 14.124,0.462 21.091,-0.052 -2.102,0.569 -4.206,1.138 -6.308,1.707 l 1.236,-0.636 c -1.915,2.49 -3.83,4.981 -5.744,7.47 0.013,-0.079 0.026,-0.157 0.039,-0.236 v 6.646 C 5.234,81.876 4.49,80.279 4.179,77.568 3.738,73.737 6.786,68.293 10.37,66.775 c 6.063,-2.568 11.419,-1.966 16.15,2.704 1.22,1.205 3.333,2.615 -0.133,0.477 -8.943,-1.969 -14.404,0.128 -16.383,6.289 0.036,-0.153 0.073,-0.305 0.109,-0.456 C 9.104,79.978 9.964,77.414 9.957,76.045 9.952,74.961 9.964,73.88 9.931,72.795 9.859,70.498 9.689,68.202 9.517,65.91 9.104,60.461 8.563,55.018 8.356,49.557 8.09,42.53 9.202,35.796 10.574,28.905 c 1.697,-8.53 3.071,-16.351 0.129,-24.767 -2.87,-8.212 -7.56,-15.986 -11.436,-23.76 -1.805,-3.62 -3.316,-8.676 -5.935,-11.764 0.626,0.739 2.285,0.5 -0.552,0.172 -0.196,-0.022 -2.752,-0.292 -3.745,-0.411 -9.958,-1.192 -19.373,-4.46 -27.556,-10.359 -9.804,-7.068 -6.777,-22.884 6.309,-23.293 7.438,-0.233 15.427,-0.987 22.78,0.481 7.52,1.501 13.303,6.668 16.466,13.547 6.613,14.382 11.469,29.802 17.073,44.603 C 26.498,-0.331 21.454,7.061 15.377,8.73 8.352,10.661 2.399,6.338 0,0"
             style="fill:#faac6b;fill-opacity:1;fill-rule:nonzero;stroke:none"
             id="path554" /></g><g
           id="g556"
           transform="translate(240.3047,180.6548)"><path
             d="m 0,0 c 0.021,-1.231 0.043,-2.462 0.063,-3.695 0.086,-4.964 6.741,-6.796 9.318,-2.523 0.722,1.195 1.979,4 2.976,4.47 L 8.505,-2.251 C 8.851,-2.39 9.196,-2.53 9.542,-2.668 8.546,-1.903 7.55,-1.137 6.554,-0.371 8.929,-4.087 6.632,-12.405 6.725,-16.63 c 0.054,-2.469 0.398,-4.883 0.877,-7.304 0.617,-3.122 0.217,-4.176 -2.043,-6.518 2.844,-1.178 5.69,-2.357 8.535,-3.535 -0.066,6.218 -0.081,12.436 -0.046,18.654 0.037,6.437 -9.963,6.444 -10,0 -0.035,-6.218 -0.02,-12.436 0.046,-18.654 0.045,-4.255 5.482,-6.698 8.536,-3.536 3.669,3.8 6.247,7.862 5.328,13.335 -0.482,2.88 -1.241,5.455 -1.249,8.421 -0.008,3.194 0.351,6.379 0.425,9.571 0.107,4.678 0.186,11.107 -4.933,13.17 C 6.271,9.365 3.243,2.966 0.747,-1.171 3.853,-2.012 6.958,-2.853 10.063,-3.695 10.043,-2.462 10.021,-1.231 10,0 9.889,6.428 -0.111,6.448 0,0"
             style="fill:#faac6b;fill-opacity:1;fill-rule:nonzero;stroke:none"
             id="path558" /></g><g
           id="g560"
           transform="translate(246.6963,173.6533)"><path
             d="m 0,0 c -0.222,-3.736 1.076,-7.006 2.032,-10.534 0.707,-2.607 3.555,-4.205 6.151,-3.492 2.621,0.72 4.202,3.535 3.492,6.15 C 10.881,-4.947 9.847,-2.588 10,0 10.159,2.699 7.587,5 5,5 2.16,5 0.16,2.707 0,0"
             style="fill:#faac6b;fill-opacity:1;fill-rule:nonzero;stroke:none"
             id="path562" /></g><g
           id="g564"
           transform="translate(100.7378,162.6514)"><path
             d="m 0,0 c -0.211,-6.508 -3.402,-35.166 10.563,-29.03 4.769,2.095 6.275,7.747 6.59,12.478 0.481,7.244 0.119,14.633 0.148,21.893 0.025,6.435 -9.974,6.444 -10,0 -0.007,-1.707 0.047,-25.008 -0.593,-24.965 1.178,-0.488 2.357,-0.977 3.536,-1.465 -0.926,0.823 -0.285,8.044 -0.325,9.728 C 9.829,-7.573 9.877,-3.787 10,0 10.209,6.437 0.209,6.43 0,0"
             style="fill:#faac6b;fill-opacity:1;fill-rule:nonzero;stroke:none"
             id="path566" /></g><g
           id="g568"
           transform="translate(192.7051,214.916)"><path
             d="m 0,0 c 0.19,-0.885 0.352,-1.771 0.485,-2.666 -0.148,1.107 -0.298,2.215 -0.446,3.323 0.26,-2.026 0.348,-4.044 0.265,-6.084 -0.266,-6.542 5.939,-12.794 12.5,-12.5 7,0.313 12.216,5.492 12.5,12.5 0.164,4.038 -0.35,8.131 -1.197,12.073 C 22.732,13.047 14.899,17.373 8.73,15.376 1.983,13.193 -1.473,6.858 0,0"
             style="fill:#faac6b;fill-opacity:1;fill-rule:nonzero;stroke:none"
             id="path570" /></g><g
           id="g572"
           transform="translate(250.1582,172.9375)"><path
             d="M 0,0 C 0.535,1.367 0.87,2.813 1.181,4.268 L 1.405,5.362 C 1.539,5.876 1.715,6.54 2.093,6.98 2.444,7.445 2.874,7.818 3.376,7.987 L 3.767,8.07 4.176,8.056 C 4.44,7.991 4.713,7.907 4.943,7.763 5.266,7.592 5.471,7.277 5.765,7.011 5.883,6.851 5.994,6.667 6.108,6.485 L 6.281,6.21 6.399,6.041 c 1.089,-1.48 1.888,-3.147 2.58,-4.864 0.614,-1.742 1.042,-3.559 1.254,-5.406 0.127,-1.854 0.051,-3.72 -0.229,-5.55 -0.375,-1.827 -0.875,-3.58 -1.603,-5.208 -0.676,-1.645 -1.467,-3.199 -2.193,-4.771 -0.724,-1.567 -1.407,-3.164 -1.697,-4.854 0.27,1.685 0.385,3.419 0.529,5.159 0.136,1.739 0.272,3.478 0.37,5.166 0.06,1.699 0.184,3.319 0.115,4.9 0.011,1.578 -0.084,3.146 -0.267,4.698 -0.091,1.56 -0.291,3.121 -0.591,4.674 C 4.443,1.562 4.062,3.122 3.653,4.717 L 3.606,4.873 3.592,4.904 C 3.581,4.927 3.568,4.95 3.563,4.984 3.611,5.109 3.555,5.146 3.537,5.241 3.411,5.507 3.112,5.435 2.929,5.252 2.825,5.158 2.727,5.046 2.64,4.874 L 2.055,3.922 C 1.287,2.647 0.544,1.363 0,0"
             style="fill:#e28e50;fill-opacity:1;fill-rule:nonzero;stroke:none"
             id="path574" /></g><g
           id="g576"
           transform="translate(253.6406,180.6133)"><path
             d="M 0,0 C 0.142,0.482 0.613,0.984 1.395,1.187 2.238,1.332 3.104,0.968 3.72,0.545 4.409,0.141 4.781,-0.258 5.234,-0.697 5.6,-1.169 5.915,-1.677 6.161,-2.216 6.329,-2.783 6.426,-3.372 6.457,-3.967 6.4,-4.583 6.373,-5.182 6.12,-5.796 5.95,-6.395 5.665,-6.983 5.415,-7.537 5.124,-8.096 4.891,-8.613 4.868,-9.126 4.85,-8.61 4.589,-8.1 4.215,-7.634 3.874,-7.163 3.475,-6.729 3.12,-6.316 2.688,-5.919 2.447,-5.511 2.117,-5.136 1.883,-4.737 1.669,-4.345 1.476,-3.95 1.37,-3.522 1.279,-3.085 1.201,-2.63 1.206,-2.145 1.116,-1.621 1.232,-1.171 1.276,-0.76 1.358,-0.331 1.173,0.017 0.974,0.419 0.217,0.534 0,0"
             style="fill:#e28e50;fill-opacity:1;fill-rule:nonzero;stroke:none"
             id="path578" /></g><g
           id="g580"
           transform="translate(254.5312,182.0811)"><path
             d="M 0,0 C 0.164,0.173 0.261,0.508 0.538,0.905 0.813,1.263 1.234,1.607 1.714,1.78 2.213,2.029 2.721,2.003 3.246,1.926 3.73,1.775 4.205,1.488 4.589,1.068 4.853,0.661 5.006,0.206 5.054,-0.227 5.014,-0.695 4.97,-1.103 4.687,-1.498 4.484,-1.876 4.171,-2.206 3.894,-2.493 3.577,-2.783 3.335,-3.026 3.311,-3.272 3.293,-3.026 3.042,-2.777 2.692,-2.577 2.38,-2.373 2.007,-2.213 1.705,-2.109 1.323,-2.023 1.142,-1.956 0.911,-1.97 0.768,-1.95 0.678,-1.973 0.639,-1.991 l 0.002,0.002 0.498,0.39 L 1.137,-1.6 1.134,-1.603 1.121,-1.612 1.097,-1.631 1.055,-1.671 C 1.026,-1.697 1,-1.722 0.979,-1.748 0.936,-1.796 0.909,-1.836 0.896,-1.857 0.985,-1.704 1.045,-1.518 1.061,-1.169 1.06,-0.89 0.979,-0.524 0.771,-0.263 0.566,0.041 0.202,0.158 0,0"
             style="fill:#e28e50;fill-opacity:1;fill-rule:nonzero;stroke:none"
             id="path582" /></g><g
           id="g584"
           transform="translate(248.3545,166.3584)"><path
             d="M 0,0 C 0.645,-0.271 1.385,-0.311 2.181,-0.443 2.97,-0.573 3.835,-0.822 4.639,-1.368 5.465,-1.883 6.136,-2.749 6.507,-3.897 6.811,-5.096 6.587,-6.324 6.27,-7.194 5.863,-8.055 5.404,-8.651 5.004,-9.156 4.511,-9.644 4.071,-10.166 3.483,-10.634 2.939,-11.123 2.369,-11.618 1.824,-12.143 1.283,-12.666 0.778,-13.228 0.54,-13.885 c 0.212,0.665 0.19,1.414 0.164,2.189 -0.026,0.773 -0.047,1.563 -0.009,2.343 -0.003,0.8 0.174,1.533 0.328,2.283 0.245,0.732 0.498,1.343 0.625,1.776 l 0.428,0.789 c 0.179,0.24 0.209,0.67 0.173,1.249 -0.063,0.554 -0.305,1.193 -0.698,1.8 C 1.159,-0.852 0.632,-0.294 0,0"
             style="fill:#e28e50;fill-opacity:1;fill-rule:nonzero;stroke:none"
             id="path586" /></g><g
           id="g588"
           transform="translate(107.0073,167.5684)"><path
             d="M 0,0 C -1.52,0.998 -3.194,1.764 -4.874,2.52 L -6.139,3.08 -6.765,3.357 C -6.838,3.426 -6.903,3.492 -6.961,3.558 -7.015,3.646 -7.078,3.64 -7.133,3.639 -7.188,3.639 -7.237,3.635 -7.281,3.627 -7.352,3.554 -7.367,3.356 -7.383,3.259 L -7.39,3.064 C -7.405,2.914 -7.448,2.7 -7.463,2.515 -7.512,2.135 -7.532,1.741 -7.549,1.35 c -0.026,-0.791 0.003,-1.605 0.084,-2.446 0.087,-1.689 0.236,-3.469 0.422,-5.185 0.096,-1.738 0.226,-3.477 0.403,-5.22 0.098,-1.759 0.317,-3.508 0.459,-5.303 0.184,-1.784 0.412,-3.587 0.764,-5.378 0.353,-1.788 0.805,-3.579 1.593,-5.219 -0.802,1.629 -1.789,3.18 -2.722,4.794 -0.939,1.609 -1.836,3.268 -2.599,4.995 -0.812,1.714 -1.388,3.516 -1.924,5.338 -0.444,1.839 -0.763,3.712 -0.955,5.6 -0.104,1.907 -0.083,3.767 0.086,5.712 0.132,0.977 0.308,1.98 0.593,2.981 0.151,0.501 0.315,1 0.534,1.489 0.107,0.252 0.22,0.468 0.361,0.741 0.194,0.34 0.371,0.684 0.602,0.989 0.209,0.328 0.436,0.597 0.655,0.874 l 0.326,0.403 0.16,0.197 C -8.656,6.788 -8.56,6.677 -8.49,6.667 l 0.903,-0.4 0.44,-0.204 c 0.139,-0.045 0.32,-0.241 0.475,-0.352 L -5.73,4.944 -5.22,4.464 -4.213,3.515 C -2.864,2.26 -1.509,1.013 0,0"
             style="fill:#e28e50;fill-opacity:1;fill-rule:nonzero;stroke:none"
             id="path590" /></g><g
           id="g592"
           transform="translate(108.2266,158.6914)"><path
             d="M 0,0 C -0.248,-0.72 -0.322,-1.523 -0.473,-2.372 -0.62,-3.217 -0.849,-4.087 -1.208,-4.923 -1.396,-5.367 -1.574,-5.742 -1.5,-5.848 l 0.013,-0.017 c 0.008,-0.006 0.023,-0.014 -0.045,0.025 -0.082,0.048 -0.153,0.085 -0.209,0.111 0.077,-0.033 -0.031,0.011 0.02,-0.008 0,0 0.137,-0.032 0.316,-0.02 l 0.145,0.014 c 0.045,0.002 0.159,0.02 0.139,0.018 0.015,10e-4 0.03,-0.003 0.047,-0.013 0.031,-0.017 0.078,-0.061 0.124,-0.109 0.104,-0.102 0.238,-0.244 0.391,-0.379 0.301,-0.403 0.773,-0.93 1.276,-1.533 0.443,-0.67 1.012,-1.398 1.34,-2.342 0.364,-0.91 0.528,-1.944 0.411,-2.845 -0.1,-0.913 -0.387,-1.679 -0.566,-2.412 0.159,0.755 -0.142,1.557 -0.606,2.128 -0.461,0.592 -1.044,0.932 -1.633,1.21 -0.635,0.248 -1.205,0.546 -1.909,0.881 -0.645,0.404 -1.338,0.87 -2.058,1.606 -0.673,0.875 -1.33,1.929 -1.329,3.581 0.043,0.802 0.422,1.733 0.942,2.266 0.506,0.528 0.901,0.667 1.216,0.797 0.66,0.301 1.341,0.666 1.979,1.131 C -0.861,-1.297 -0.274,-0.717 0,0"
             style="fill:#e28e50;fill-opacity:1;fill-rule:nonzero;stroke:none"
             id="path594" /></g><g
           id="g596"
           transform="translate(196.8252,194.7466)"><path
             d="m 0,0 c 1.713,2.169 4.128,3.676 6.739,4.592 1.302,0.508 2.681,0.74 4.068,0.948 1.393,0.119 2.801,0.129 4.209,0.026 1.397,-0.192 2.773,-0.496 4.112,-0.902 1.31,-0.497 2.613,-1.007 3.779,-1.779 2.363,-1.443 4.407,-3.426 5.623,-5.91 -2.593,0.916 -4.9,1.718 -7.204,2.343 -1.167,0.263 -2.277,0.608 -3.43,0.775 C 16.771,0.351 15.63,0.521 14.489,0.597 13.357,0.764 12.207,0.839 11.052,0.825 9.89,0.9 8.729,0.802 7.534,0.788 5.148,0.661 2.725,0.357 0,0"
             style="fill:#e28e50;fill-opacity:1;fill-rule:nonzero;stroke:none"
             id="path598" /></g><g
           id="g600"
           transform="translate(133.1924,189.5415)"><path
             d="m 0,0 c 1.392,2.405 3.444,4.317 5.81,5.762 1.168,0.766 2.466,1.292 3.783,1.799 1.343,0.421 2.729,0.743 4.142,0.947 1.43,0.116 2.865,0.105 4.286,-0.031 1.412,-0.231 2.82,-0.495 4.134,-1.065 2.635,-1.03 5.037,-2.787 6.441,-5.204 -2.668,0.745 -5.038,1.197 -7.394,1.42 C 20.02,3.686 18.873,3.817 17.715,3.753 16.567,3.784 15.417,3.712 14.29,3.542 13.144,3.461 11.996,3.282 10.858,3.013 9.694,2.83 8.566,2.477 7.378,2.205 5.032,1.57 2.661,0.769 0,0"
             style="fill:#e28e50;fill-opacity:1;fill-rule:nonzero;stroke:none"
             id="path602" /></g><g
           id="g604"
           transform="translate(197.3975,191.8315)"><path
             d="m 0,0 c 2.249,0.322 4.425,0.28 6.568,0.114 1.076,-0.047 2.115,-0.22 3.155,-0.299 1.027,-0.146 2.047,-0.265 3.054,-0.333 1.001,-0.138 1.999,-0.226 2.986,-0.246 0.988,-0.096 1.968,-0.045 2.966,-0.056 1.992,0.063 3.97,0.297 6.174,0.843 -1.335,-1.863 -3.474,-3.091 -5.689,-3.729 -1.11,-0.361 -2.263,-0.495 -3.41,-0.609 -1.15,-0.046 -2.287,-0.015 -3.41,0.069 -1.118,0.148 -2.211,0.35 -3.287,0.574 C 8.043,-3.382 6.99,-3.127 5.975,-2.74 3.937,-2.032 1.933,-1.197 0,0"
             style="fill:#e28e50;fill-opacity:1;fill-rule:nonzero;stroke:none"
             id="path606" /></g><g
           id="g608"
           transform="translate(135.8628,189.0684)"><path
             d="M 0,0 C 2.345,0.167 4.576,-0.003 6.739,-0.141 7.826,-0.17 8.881,-0.31 9.933,-0.31 c 1.044,-0.073 2.08,-0.099 3.094,-0.034 1.018,-0.015 2.028,0.046 3.014,0.209 1.01,0.077 1.953,0.326 3.038,0.534 1.07,0.234 2.213,0.494 3.424,0.556 C 23.7,1.031 24.99,0.85 26.022,0.279 23.715,-0.16 22.122,-1.357 20.062,-2.357 19.064,-2.907 17.878,-3.306 16.705,-3.623 15.516,-3.891 14.309,-4.036 13.11,-4.09 11.908,-4.091 10.726,-3.986 9.565,-3.831 8.41,-3.616 7.276,-3.385 6.185,-3.003 3.993,-2.297 1.934,-1.329 0,0"
             style="fill:#e28e50;fill-opacity:1;fill-rule:nonzero;stroke:none"
             id="path610" /></g><g
           id="g612"
           transform="translate(160.9082,164.2744)"><path
             d="m 0,0 c -0.44,-1.861 -1.13,-3.485 -1.433,-4.973 -0.132,-0.762 -0.243,-1.411 -0.184,-2.077 0.006,-0.649 0.121,-1.286 0.364,-1.784 0.176,-0.53 0.446,-0.943 0.851,-1.265 0.374,-0.386 0.95,-0.631 1.593,-0.879 1.293,-0.44 3.004,-0.4 4.911,-0.432 -1.285,-1.374 -3.03,-2.431 -5.242,-2.476 -1.087,-0.049 -2.221,0.26 -3.285,0.869 -1.04,0.668 -1.859,1.713 -2.315,2.807 -0.411,1.126 -0.495,2.266 -0.412,3.354 0.16,1.079 0.478,2.146 1.023,2.992 C -3.101,-2.109 -1.656,-0.917 0,0"
             style="fill:#e28e50;fill-opacity:1;fill-rule:nonzero;stroke:none"
             id="path614" /></g><g
           id="g616"
           transform="translate(194.6709,164.373)"><path
             d="m 0,0 c 1.838,-0.394 3.471,-1.706 4.423,-3.503 0.51,-0.89 0.758,-1.934 0.87,-2.976 C 5.339,-7.53 5.22,-8.602 4.89,-9.636 c -0.411,-1.021 -0.928,-1.935 -1.797,-2.801 -0.96,-0.842 -2.168,-1.318 -3.263,-1.322 -1.097,-0.054 -2.126,0.211 -2.978,0.631 -0.863,0.423 -1.581,0.987 -2.257,1.633 1.87,0.157 3.578,0.1 4.73,0.619 0.58,0.276 0.999,0.54 1.232,0.925 0.313,0.364 0.631,0.981 0.796,1.556 0.242,0.572 0.371,1.212 0.4,1.863 0.093,0.66 0.009,1.311 -0.066,2.02 C 1.456,-3.107 0.895,-1.637 0,0"
             style="fill:#e28e50;fill-opacity:1;fill-rule:nonzero;stroke:none"
             id="path618" /></g><g
           id="g620"
           transform="translate(166.4448,155.1367)"><path
             d="m 0,0 c 1.22,0.028 2.463,-0.51 3.49,-1.136 1.038,-0.626 1.951,-1.338 2.819,-1.824 0.445,-0.23 0.855,-0.437 1.236,-0.554 0.414,-0.136 0.89,-0.251 1.375,-0.317 0.955,-0.2 1.989,-0.278 2.873,-0.197 0.949,0.049 1.303,0.131 1.826,0.654 0.592,0.471 1.264,1.732 2.5,2.581 0.317,0.229 0.577,0.377 0.851,0.527 0.277,0.151 0.558,0.293 0.849,0.422 0.579,0.259 1.189,0.472 1.823,0.605 1.252,0.276 2.674,0.179 3.701,-0.488 -1.212,-0.117 -2.156,-0.625 -3.004,-1.217 -0.423,-0.3 -0.824,-0.631 -1.213,-0.98 l -0.572,-0.537 c -0.189,-0.184 -0.385,-0.381 -0.5,-0.527 -0.521,-0.652 -0.872,-1.508 -1.787,-2.752 -0.482,-0.582 -1.203,-1.172 -1.993,-1.502 -0.798,-0.35 -1.58,-0.47 -2.268,-0.528 -1.4,-0.032 -2.66,0.161 -3.926,0.499 C 7.457,-7.064 6.837,-6.837 6.205,-6.509 5.538,-6.166 4.993,-5.73 4.53,-5.27 2.621,-3.441 1.913,-1.462 0,0"
             style="fill:#e28e50;fill-opacity:1;fill-rule:nonzero;stroke:none"
             id="path622" /></g><g
           id="g624"
           transform="translate(190.8535,205.2056)"><path
             d="m 0,0 c 2.663,2.843 6.179,4.917 9.954,6.194 1.892,0.638 3.862,1.048 5.854,1.289 l 1.5,0.135 1.505,0.034 c 1.006,0.051 2.01,-0.039 3.016,-0.079 1.001,-0.101 1.995,-0.277 2.985,-0.44 0.979,-0.242 1.976,-0.396 2.932,-0.717 0.957,-0.317 1.911,-0.63 2.83,-1.043 0.938,-0.36 1.825,-0.84 2.695,-1.336 1.728,-1.01 3.392,-2.12 4.81,-3.582 1.415,-1.427 2.567,-3.246 2.889,-5.181 -1.063,1.641 -2.504,2.798 -4.048,3.748 -1.537,0.96 -3.24,1.698 -4.92,2.378 C 31.14,1.699 30.307,2.042 29.433,2.287 28.579,2.583 27.702,2.8 26.82,2.988 25.959,3.25 25.056,3.349 24.179,3.54 23.285,3.652 22.394,3.781 21.496,3.839 20.6,3.905 19.703,4.024 18.801,4.008 L 17.448,4.028 16.096,3.954 C 14.282,3.931 12.494,3.632 10.684,3.372 7.091,2.7 3.561,1.568 0,0"
             style="fill:#e28e50;fill-opacity:1;fill-rule:nonzero;stroke:none"
             id="path626" /></g><g
           id="g628"
           transform="translate(122.9131,191.9556)"><path
             d="m 0,0 c -0.061,2.034 0.667,4.097 1.732,5.886 1.066,1.819 2.495,3.38 4.049,4.76 1.542,1.408 3.291,2.547 5.094,3.587 1.838,0.978 3.762,1.807 5.792,2.428 1.018,0.288 2.074,0.492 3.148,0.643 1.053,0.136 2.084,0.213 3.126,0.248 2.08,-0.005 4.152,-0.109 6.179,-0.513 4.035,-0.727 8.027,-2.281 11.095,-4.936 -3.819,1.271 -7.616,1.863 -11.427,2.028 -1.903,0.04 -3.797,0.069 -5.67,-0.126 C 22.185,13.943 21.244,13.841 20.34,13.692 19.46,13.537 18.574,13.339 17.699,13.058 15.926,12.583 14.173,11.905 12.49,11.082 10.774,10.316 9.155,9.349 7.564,8.341 5.998,7.299 4.498,6.141 3.197,4.785 1.889,3.43 0.711,1.886 0,0"
             style="fill:#e28e50;fill-opacity:1;fill-rule:nonzero;stroke:none"
             id="path630" /></g><g
           id="g632"><g
             id="g634" /><g
             id="g646"><g
               clip-path="url(#clipPath638)"
               opacity="0.610001"
               id="g644"><g
                 transform="translate(167.1118,197.6597)"
                 id="g642"><path
                   d="M 0,0 C 0.282,-0.564 0.575,-1.123 0.877,-1.681 1.155,-2.258 1.431,-2.828 1.704,-3.395 1.958,-3.983 2.209,-4.568 2.46,-5.15 2.687,-5.751 2.911,-6.35 3.136,-6.947 3.332,-7.564 3.525,-8.174 3.719,-8.784 l 0.477,-1.875 0.345,-1.907 0.244,-1.929 0.117,-1.943 0.032,-1.953 c -0.052,-0.649 -0.108,-1.298 -0.191,-1.942 -0.115,-0.642 -0.257,-1.28 -0.43,-1.908 -0.193,-0.625 -0.401,-1.243 -0.61,-1.855 -0.247,-0.596 -0.495,-1.195 -0.744,-1.798 -0.271,-0.576 -0.543,-1.156 -0.819,-1.745 -0.298,-0.568 -0.569,-1.14 -0.801,-1.726 0.203,0.598 0.366,1.21 0.501,1.826 0.109,0.626 0.196,1.254 0.286,1.874 0.055,0.63 0.109,1.255 0.163,1.877 0.033,0.623 0.065,1.244 0.099,1.862 -0.003,0.622 0.026,1.234 0.082,1.843 0.022,0.611 0.072,1.219 0.124,1.827 l 0.153,1.83 0.042,1.84 -0.026,1.846 -0.119,1.848 -0.18,1.852 C 2.375,-8.426 2.285,-7.812 2.195,-7.19 2.072,-6.579 1.95,-5.966 1.826,-5.35 1.667,-4.747 1.507,-4.14 1.345,-3.529 1.146,-2.938 0.946,-2.342 0.743,-1.739 0.505,-1.157 0.258,-0.576 0,0"
                   style="fill:#e28e50;fill-opacity:1;fill-rule:nonzero;stroke:none"
                   id="path640" /></g></g></g></g><g
           id="g648"><g
             id="g650" /><g
             id="g662"><g
               clip-path="url(#clipPath654)"
               opacity="0.610001"
               id="g660"><g
                 transform="translate(186.6846,195.7549)"
                 id="g658"><path
                   d="m 0,0 c -0.106,-0.545 -0.201,-1.092 -0.287,-1.64 -0.059,-0.559 -0.115,-1.109 -0.172,-1.654 -0.025,-0.557 -0.052,-1.109 -0.077,-1.658 0.002,-0.554 0.004,-1.105 0.006,-1.654 0.025,-0.555 0.051,-1.101 0.076,-1.647 l 0.135,-1.636 0.166,-1.625 0.231,-1.612 0.269,-1.601 0.35,-1.583 c 0.11,-0.527 0.215,-1.055 0.295,-1.589 0.104,-0.529 0.181,-1.066 0.227,-1.614 0.082,-0.538 0.15,-1.083 0.217,-1.633 0.083,-0.545 0.166,-1.093 0.251,-1.647 0.205,-1.092 0.429,-2.2 0.863,-3.225 -0.237,0.502 -0.513,0.987 -0.815,1.465 -0.273,0.49 -0.568,0.975 -0.861,1.465 -0.275,0.506 -0.548,1.007 -0.819,1.506 -0.245,0.515 -0.49,1.034 -0.719,1.561 -0.221,0.529 -0.411,1.07 -0.574,1.619 -0.142,0.552 -0.258,1.112 -0.37,1.672 l -0.179,1.704 -0.124,1.705 -0.026,1.707 0.048,1.702 0.155,1.693 c 0.077,0.557 0.155,1.114 0.234,1.679 0.101,0.552 0.201,1.105 0.303,1.662 0.119,0.544 0.239,1.09 0.36,1.642 0.134,0.536 0.27,1.076 0.406,1.625 C -0.277,-1.075 -0.132,-0.539 0,0"
                   style="fill:#e28e50;fill-opacity:1;fill-rule:nonzero;stroke:none"
                   id="path656" /></g></g></g></g><g
           id="g664"
           transform="translate(152.1895,128.2324)"><path
             d="M 0,0 C 2.03,1.33 4.098,2.576 6.191,3.766 7.237,4.359 8.29,4.94 9.348,5.51 c 1.058,0.559 2.097,1.149 3.312,1.663 1.184,0.532 2.638,0.887 4.003,0.91 1.371,0.044 2.676,-0.127 3.908,-0.314 2.443,-0.452 4.673,-1.02 6.633,-0.836 1.912,0.041 4.057,1.101 6.799,1.574 0.684,0.091 1.438,0.124 2.142,0.078 C 36.832,8.539 37.452,8.454 38.076,8.359 39.314,8.163 40.52,7.908 41.719,7.575 42.32,7.414 42.92,7.24 43.524,7.039 43.827,6.936 44.133,6.826 44.443,6.701 L 44.921,6.495 45.318,6.306 C 46.376,5.799 47.452,5.318 48.549,4.839 50.735,3.894 53.029,2.845 54.941,1.342 52.646,2.157 50.345,2.571 47.976,3.088 46.795,3.349 45.605,3.653 44.43,4.016 L 43.99,4.15 43.622,4.249 C 43.364,4.312 43.095,4.37 42.819,4.426 42.267,4.532 41.698,4.624 41.127,4.709 39.979,4.854 38.819,4.996 37.68,5.092 37.114,5.138 36.542,5.175 36.031,5.173 35.537,5.167 35.092,5.114 34.595,5.006 32.61,4.669 30.37,3.438 27.455,3.193 24.597,3.051 22.134,3.839 19.893,4.294 18.776,4.563 17.701,4.759 16.673,4.802 15.637,4.854 14.707,4.72 13.643,4.429 12.603,4.128 11.479,3.678 10.344,3.276 9.214,2.869 8.079,2.474 6.937,2.092 4.654,1.328 2.346,0.622 0,0"
             style="fill:#e28e50;fill-opacity:1;fill-rule:nonzero;stroke:none"
             id="path666" /></g><g
           id="g668"
           transform="translate(190.7549,133.7275)"><path
             d="M 0,0 C -0.593,-0.622 -1.107,-0.868 -1.579,-0.978 -1.828,-1.064 -2.03,-1.022 -2.257,-1.035 l -0.598,0.156 -0.505,0.358 c -0.133,0.184 -0.296,0.308 -0.388,0.557 -0.218,0.433 -0.355,0.987 -0.251,1.846 0.728,0.463 1.228,0.643 1.657,0.721 0.233,0.072 0.396,0.023 0.592,0.041 L -1.26,2.513 -0.85,2.214 C -0.736,2.055 -0.597,1.955 -0.504,1.731 -0.289,1.35 -0.108,0.853 0,0"
             style="fill:#e28e50;fill-opacity:1;fill-rule:nonzero;stroke:none"
             id="path670" /></g><g
           id="g672"
           transform="translate(150.2451,126.3545)"><path
             d="m 0,0 c 1.949,-2.339 3.844,-4.712 5.957,-6.758 2.103,-2.048 4.449,-3.734 7.06,-4.616 2.629,-0.872 5.485,-1.206 8.401,-1.234 2.908,-0.084 5.952,0.041 8.967,0.09 3.008,0.019 6.084,-0.073 8.942,0.102 2.876,0.116 5.597,0.667 7.906,2.023 2.329,1.386 4.266,3.608 6.084,5.964 1.813,2.385 3.658,4.827 5.593,7.171 -1.283,-2.771 -2.595,-5.483 -4.053,-8.18 -1.478,-2.67 -3.273,-5.386 -5.997,-7.386 -1.342,-1.015 -2.913,-1.745 -4.491,-2.218 -1.585,-0.484 -3.192,-0.74 -4.765,-0.914 -3.173,-0.258 -6.148,-0.222 -9.18,-0.31 -3.027,0.022 -6.029,-0.04 -9.161,0.12 -3.103,0.242 -6.338,0.68 -9.336,2.068 -3.036,1.351 -5.482,3.626 -7.345,6.108 C 2.697,-5.472 1.295,-2.752 0,0"
             style="fill:#e28e50;fill-opacity:1;fill-rule:nonzero;stroke:none"
             id="path674" /></g><g
           id="g676"
           transform="translate(229.543,248.5317)"><path
             d="m 0,0 c 0.048,-1.84 0.591,-3.568 1.366,-5.157 0.791,-1.591 1.797,-3.068 2.822,-4.562 1.028,-1.493 2.095,-3.002 3.023,-4.667 0.941,-1.656 1.685,-3.513 2.123,-5.402 0.937,-3.794 0.802,-7.685 0.412,-11.401 -0.218,-1.886 -0.59,-3.666 -0.6,-5.228 -0.027,-1.536 0.374,-2.987 1.051,-4.504 1.279,-3.038 3.667,-6.126 4.737,-10.093 0.487,-1.925 0.712,-3.816 0.913,-5.633 0.199,-1.813 0.388,-3.625 0.544,-5.443 0.336,-3.629 0.69,-7.259 0.853,-10.939 0.156,-3.672 0.08,-7.389 -0.515,-11.01 -0.377,7.318 -2.05,14.34 -3.239,21.562 -0.328,1.793 -0.621,3.594 -0.905,5.393 -0.282,1.791 -0.566,3.521 -1.068,5.106 -0.861,3.134 -3.085,5.936 -4.752,9.552 -0.389,0.919 -0.728,1.893 -0.961,2.921 -0.239,1.019 -0.332,2.13 -0.302,3.165 0.072,2.089 0.513,3.885 0.734,5.614 0.565,3.49 0.743,6.99 0.242,10.359 -0.262,1.691 -0.749,3.297 -1.456,4.89 -0.695,1.601 -1.565,3.184 -2.407,4.817 C 1.778,-9.026 0.953,-7.336 0.404,-5.533 -0.135,-3.732 -0.344,-1.804 0,0"
             style="fill:#e28e50;fill-opacity:1;fill-rule:nonzero;stroke:none"
             id="path678" /></g><g
           id="g680"
           transform="translate(126.8818,240.1626)"><path
             d="m 0,0 c -2.47,-6.659 -5.271,-13.152 -8.188,-19.587 -0.691,-1.6 -1.516,-3.261 -2.135,-4.749 -0.301,-0.747 -0.53,-1.47 -0.619,-2.149 -0.094,-0.684 -0.052,-1.281 0.117,-2.002 0.153,-0.716 0.418,-1.495 0.699,-2.355 0.28,-0.871 0.538,-1.812 0.734,-2.73 0.409,-1.85 0.612,-3.732 0.648,-5.598 0.014,-3.738 -0.553,-7.384 -1.355,-10.899 -0.859,-3.508 -1.898,-6.918 -2.972,-10.254 -2.061,-6.681 -4.001,-13.393 -3.409,-20.513 -1.065,3.393 -1.35,7.064 -1.118,10.658 0.235,3.6 0.91,7.149 1.7,10.611 0.753,3.482 1.708,6.851 2.329,10.249 0.705,3.375 1.153,6.765 1.078,10.092 10e-4,1.663 -0.147,3.311 -0.469,4.915 -0.158,0.81 -0.351,1.58 -0.594,2.393 -0.248,0.822 -0.545,1.721 -0.742,2.737 -0.189,1.007 -0.217,2.202 -0.005,3.26 0.199,1.065 0.567,2.018 0.967,2.889 0.828,1.732 1.675,3.184 2.54,4.752 C -7.384,-12.093 -3.857,-5.963 0,0"
             style="fill:#e28e50;fill-opacity:1;fill-rule:nonzero;stroke:none"
             id="path682" /></g><g
           id="g684"
           transform="translate(125.6543,240.0752)"><path
             d="m 0,0 c 2.244,-0.279 4.48,-0.555 6.59,-0.431 2.116,0.101 4.021,0.745 5.266,2.025 0.635,0.653 1.242,1.547 2.121,2.483 0.444,0.464 0.963,0.944 1.614,1.339 0.654,0.404 1.383,0.668 2.051,0.832 1.379,0.288 2.493,0.283 3.565,0.4 1.092,0.087 2.176,0.211 3.257,0.345 2.17,0.2 4.32,0.507 6.431,0.945 2.129,0.367 4.203,0.93 6.262,1.54 4.083,1.323 7.954,3.264 11.442,6.173 C 46.312,11.705 42.439,8.688 38.226,6.754 36.12,5.751 33.892,5.074 31.663,4.471 29.417,3.937 27.148,3.546 24.878,3.268 23.74,3.163 22.601,3.068 21.465,3.013 20.315,2.936 19.182,2.938 18.367,2.782 17.944,2.718 17.602,2.621 17.289,2.463 16.966,2.306 16.63,2.052 16.277,1.737 15.564,1.109 14.823,0.2 13.764,-0.611 12.698,-1.429 11.441,-1.99 10.181,-2.226 8.919,-2.473 7.675,-2.437 6.499,-2.262 4.139,-1.898 2.02,-1.016 0,0"
             style="fill:#e28e50;fill-opacity:1;fill-rule:nonzero;stroke:none"
             id="path686" /></g><g
           id="g688"
           transform="translate(174.0176,243.9844)"><path
             d="m 0,0 c 3.224,1.811 6.556,3.371 8.751,5.758 1.065,1.186 2.009,2.633 3.188,4.182 0.618,0.749 1.312,1.517 2.169,2.205 0.849,0.69 1.908,1.26 3.015,1.586 2.273,0.6 4.461,0.218 6.322,-0.289 C 25.312,12.854 27,12.161 28.605,11.524 31.858,10.317 35.308,9.542 38.981,9.049 35.42,7.979 31.533,7.931 27.805,8.709 25.92,9.068 24.216,9.691 22.563,10.003 20.937,10.392 19.389,10.521 18.138,10.124 16.87,9.832 15.757,8.923 14.635,7.645 13.463,6.437 12.348,4.854 10.711,3.6 9.114,2.337 7.304,1.518 5.494,0.981 3.676,0.443 1.845,0.173 0,0"
             style="fill:#e28e50;fill-opacity:1;fill-rule:nonzero;stroke:none"
             id="path690" /></g><g
           id="g692"
           transform="translate(213.1875,245.4883)"><path
             d="m 0,0 c 2.224,0.792 4.473,1.158 6.686,1.425 1.106,0.169 2.207,0.214 3.299,0.333 1.092,0.058 2.178,0.134 3.255,0.232 1.079,0.037 2.152,0.103 3.218,0.199 1.073,0.036 2.126,0.181 3.206,0.228 2.145,0.185 4.282,0.437 6.623,0.704 C 24.62,1.44 22.49,0.312 20.284,-0.443 19.183,-0.852 18.041,-1.08 16.906,-1.333 15.762,-1.506 14.616,-1.644 13.474,-1.751 12.327,-1.784 11.188,-1.792 10.054,-1.782 8.92,-1.699 7.794,-1.667 6.674,-1.49 4.433,-1.206 2.229,-0.76 0,0"
             style="fill:#e28e50;fill-opacity:1;fill-rule:nonzero;stroke:none"
             id="path694" /></g><g
           id="g696"><g
             id="g698" /><g
             id="g710"><g
               clip-path="url(#clipPath702)"
               opacity="0.600006"
               id="g708"><g
                 transform="translate(168.1333,104.9326)"
                 id="g706"><path
                   d="m 0,0 c 0.497,0.2 0.982,0.396 1.459,0.589 0.503,0.178 0.998,0.352 1.487,0.525 0.51,0.153 1.013,0.303 1.514,0.452 0.515,0.126 1.027,0.251 1.537,0.376 0.525,0.1 1.041,0.198 1.556,0.296 l 1.572,0.213 1.582,0.125 1.586,0.048 1.586,-0.047 1.582,-0.122 1.572,-0.213 C 17.549,2.145 18.064,2.048 18.589,1.948 19.1,1.824 19.612,1.699 20.127,1.574 20.628,1.425 21.132,1.275 21.641,1.123 22.131,0.95 22.625,0.776 23.128,0.599 23.606,0.406 24.091,0.211 24.588,0.011 24.087,0.166 23.553,0.229 23.016,0.255 22.468,0.252 21.919,0.218 21.375,0.164 20.829,0.084 20.288,0.004 19.75,-0.075 c -0.53,-0.1 -1.056,-0.199 -1.581,-0.298 -1.046,-0.27 -2.029,-0.354 -3.008,-0.542 -0.485,-0.05 -0.964,-0.087 -1.441,-0.109 -0.477,-0.047 -0.952,-0.08 -1.426,-0.099 -0.473,0.019 -0.947,0.051 -1.425,0.098 -0.476,0.023 -0.956,0.06 -1.441,0.11 l -1.48,0.243 C 7.451,-0.604 6.944,-0.516 6.419,-0.377 5.895,-0.278 5.368,-0.181 4.838,-0.081 4.3,-0.002 3.76,0.077 3.213,0.157 2.668,0.21 2.119,0.243 1.572,0.246 1.035,0.22 0.501,0.156 0,0"
                   style="fill:#e28e50;fill-opacity:1;fill-rule:nonzero;stroke:none"
                   id="path704" /></g></g></g></g></g><path
         d="m 209.06084,241.68165 c -1.01,-0.359 -2.418,0.219 -3.472,0.437 -1.116,0.23 -2.238,0.433 -3.355,0.666 -0.549,0.114 -1.126,0.286 -1.67,0.346 -0.574,0.064 -1.585,-0.058 -2.032,0.246 0.574,1.003 2.172,1.634 3.212,2.004 0.586,0.209 1.21,0.322 1.819,0.443 1.848,0.365 3.752,0.89 5.632,1.06 1.711,0.155 3.495,-10e-4 5.215,0.006 1.045,0.004 2.126,-0.24 3.101,-0.616 1.298,-0.499 2.498,-0.991 3.591,-1.85 0.484,-0.382 1.674,-0.913 1.649,-1.6 -0.449,-0.355 -1.064,-0.449 -1.594,-0.635 -0.678,-0.238 -1.331,-0.539 -2.039,-0.692 -0.868,-0.186 -1.786,-0.385 -2.674,-0.357 -0.869,0.026 -1.719,0.213 -2.595,0.209 -0.77,-0.005 -1.54,0 -2.309,0 -0.765,0 -1.805,-0.092 -2.479,0.333"
         style="fill:#ffffff;fill-opacity:1;fill-rule:nonzero;stroke:none"
         id="path738" /><path
         d="m 201.81084,172.09865 -0.25,5.307 2.54,4.07 5.543,-0.428 c 0,0 0.094,-0.535 -0.762,-1.62 z"
         style="fill:#290e12;fill-opacity:1;fill-rule:nonzero;stroke:none"
         id="path742" /><path
         d="m 158.35284,172.97365 c -0.741,0.002 -1.213,0.334 -1.831,0.717 -0.674,0.418 -1.441,0.838 -1.993,1.408 -0.298,0.308 -0.521,0.667 -0.844,0.959 -0.443,0.4 -0.932,0.747 -1.393,1.12 -0.441,0.358 -2.273,1.62 -2.273,1.62 0,0 2.168,0.735 2.682,0.834 0.739,0.143 1.872,0.282 2.652,0.092 0.658,-0.161 1.054,-1.333 1.306,-1.951 0.417,-1.022 0.791,-2.028 1.298,-3 0.383,-0.736 0.293,-1.028 0.396,-1.799"
         style="fill:#290e12;fill-opacity:1;fill-rule:nonzero;stroke:none"
         id="path746" /><path
         d="m 157.94904,172.59955 c -0.121,0.091 0,2.312 0,2.312 h 32.591 l 11.733,1.369 -0.14,-3.298 -3.051,-1.756 -6.544,-0.812 -7.951,-0.258 -10.729,-0.38 -9.505,-0.092 z"
         style="fill:#e7e8e9;fill-opacity:1;fill-rule:nonzero;stroke:none"
         id="path750" /><path
         d="m 155.31134,180.11715 1.042,-5.311 c 7.139,-0.812 14.356,-1.511 21.542,-1.551 4.522,-0.026 9.044,0.165 13.547,0.57 3.895,0.351 7.865,0.635 11.619,1.814 0,0 1.506,3.626 1.375,5.449 l -14.042,0.469 -8.125,-0.876 -15,-0.042 z"
         style="fill:#ffffff;fill-opacity:1;fill-rule:nonzero;stroke:none"
         id="path754" /><path
         d="m 150.67364,178.33985 c 1.833,-2.678 3.733,-5.515 5.952,-7.908 3.756,-4.053 9.01,-6.471 14.455,-7.179 4.456,-0.58 9.007,-0.238 13.474,-0.238 2.7,0 5.101,0.232 7.742,0.826 2.921,0.657 5.828,1.721 8.229,3.55 2.025,1.542 3.622,3.576 5.092,5.635 0.71,0.995 1.429,2.076 2.036,3.166 0.592,1.061 1.231,2.835 1.757,3.925 -0.447,-0.927 -2.813,-3.947 -3.462,-4.767 -0.866,-1.094 -2.428,-1.508 -3.506,-2.409 -1.782,-1.491 -2.005,-1.277 -4.555,-2.064 -4.66,-1.437 -10.118,-0.695 -14.998,-0.695 h -12.515 c -3.392,0 -6.627,-0.59 -9.77,0.752 -2.082,0.888 -4.569,3.158 -6.395,4.516 -0.932,0.693 -2.099,1.802 -3.536,2.89"
         style="fill:#cc7237;fill-opacity:1;fill-rule:nonzero;stroke:none"
         id="path758" /><path
         d="m 149.97784,178.93165 c 6.583,2.626 11.521,5.771 16.856,7.116 3.444,0.867 5.533,0.541 9.009,-0.159 1.479,-0.298 3.814,-0.524 5.365,-0.459 2.597,0.109 4.974,1.235 7.606,1.218 2.843,-0.02 4.956,-0.857 7.719,-1.472 2.482,-0.552 5.675,-1.64 8.112,-2.369 2.322,-0.695 3.891,-1.283 6.333,-1.458 -5.797,0 -11.677,-0.167 -17.474,-0.167 h -6.515 c -2.682,0 -5.068,-0.277 -7.718,-0.796 -1.639,-0.321 -3.437,-0.422 -5.12,-0.287 -1.356,0.108 -2.758,0.482 -4.114,0.687 -1.738,0.261 -3.424,0.229 -5.182,0.229 -2.488,0 -4.912,0.084 -7.367,-0.34 -2.466,-0.426 -5.102,-1.029 -7.51,-1.743"
         style="fill:#cc7237;fill-opacity:1;fill-rule:nonzero;stroke:none"
         id="path762" /><path
         d="m 112.74594,187.10935 c 1.84,-8.486 4.188,-16.849 6.311,-25.265 2.005,-7.952 6.417,-14.182 11.277,-20.673 8.94,-11.934 18.608,-21.124 33.798,-23.641 7.305,-1.211 14.712,-1.191 22.086,-0.843 6.907,0.325 14.044,0.513 20.653,2.768 6.319,2.155 11.212,5.987 15.312,11.178 3.959,5.015 8.267,10.02 11.323,15.66 7.744,14.291 12.594,30.982 14.645,47.055 0.299,2.342 -3.383,2.32 -3.679,0 -2.068,-16.207 -7.078,-34.496 -15.987,-48.344 -4.179,-6.496 -9.797,-14.719 -16.292,-18.942 -7.273,-4.727 -15.964,-5.208 -24.37,-5.619 -8.632,-0.423 -17.39,-0.649 -25.883,1.242 -9.316,2.074 -16.514,7.063 -22.73,14.185 -6.165,7.064 -13.204,15.461 -15.967,24.542 -2.749,9.034 -4.949,18.447 -6.95,27.675 -0.501,2.312 -4.048,1.334 -3.547,-0.978"
         style="fill:#231f20;fill-opacity:1;fill-rule:nonzero;stroke:none"
         id="path766" /><path
         d="m 100.67654,233.46875 c -10.23,-8.394 -4.836,-25.988 -2.499,-36.726 1.11,-5.101 2.583,-11.825 8.056,-13.99 3.935,-1.557 8.15,0.084 9.896,3.904 0.99,2.167 -2.223,4.064 -3.22,1.882 -3.478,-7.613 -9.153,1.539 -10.232,5.291 -1.22,4.246 -1.976,8.712 -2.746,13.058 -1.345,7.588 -3.488,18.309 3.381,23.945 1.856,1.522 -0.795,4.147 -2.636,2.636"
         style="fill:#231f20;fill-opacity:1;fill-rule:nonzero;stroke:none"
         id="path770" /><path
         d="m 245.81274,191.54005 c 3.557,-1.208 8.548,-3.287 11.248,0.458 3.065,4.252 3.75,12.218 4.377,17.241 0.771,6.17 0.759,12.408 -0.053,18.573 -0.527,4.001 -0.534,11.438 -5.37,12.598 -2.346,0.563 -3.346,-3.053 -0.997,-3.616 2.311,-0.554 2.827,-10.606 2.964,-12.146 0.345,-3.852 0.386,-7.745 0.09,-11.603 -0.306,-3.993 -0.945,-7.952 -1.928,-11.835 -0.414,-1.634 -0.742,-3.618 -1.513,-5.142 -1.998,-3.945 -4.584,-2.011 -7.821,-0.912 -2.29,0.779 -3.273,-2.843 -0.997,-3.616"
         style="fill:#231f20;fill-opacity:1;fill-rule:nonzero;stroke:none"
         id="path774" /><path
         d="m 235.59694,317.06835 c 2.156,3.218 -2.894,9.543 -5.362,11.358 -1.915,1.409 -3.961,1.853 -5.722,3.578 -1.502,1.47 -2.286,2.208 -4.199,3.014 -2.207,0.931 -4.445,1.683 -6.537,2.827 -1.815,0.992 -2.531,1.146 -4.594,1.202 -2.714,0.074 -4.292,0.715 -6.537,2.021 -1.377,0.801 -2.71,1.568 -4.305,1.847 -2.869,0.504 -4.884,0.894 -7.481,2.314 -1.243,0.679 -2.426,1.268 -3.869,1.343 -2.159,0.112 -3.915,-1.141 -6.052,-1.301 -2.99,-0.223 -4.777,1.467 -7.554,2.235 -4.303,1.19 -14.129,-3.101 -16.274,2.27 -0.461,1.154 -2.15,2.047 -3.134,0.827 -4.601,-5.708 -10.1,-8.518 -16.72,-11.273 -4.312,-1.795 -8.35,-3.884 -10.92,-7.936 -1.662,-2.62 -1.347,-2.494 -4.884,-4.712 -0.633,-0.398 -1.342,-0.683 -1.942,-1.163 -1.89,-1.511 -2.956,-3.738 -3.956,-5.875 -1.719,-3.673 -6.357,-10.169 -4.816,-14.266 0.437,0.768 0.873,1.537 1.31,2.306 -6.156,-2.251 -7.49,-7.772 -10.116,-13.151 -1.223,-2.507 -2.648,-4.083 -3.001,-6.847 -0.476,-3.736 -2.163,-6.251 -3.362,-9.722 -2.407,-6.96 -0.83,-15.512 0.008,-22.653 0.94,-8.005 2.423,-15.916 4.67,-23.66 0.672,-2.312 4.291,-1.328 3.617,0.998 -1.982,6.825 -3.403,13.788 -4.312,20.836 -0.82,6.348 -1.887,13.308 -1.206,19.708 0.39,3.673 2.456,6.271 3.684,9.587 0.764,2.064 0.264,4.128 0.893,6.128 0.573,1.827 2.287,3.784 3.074,5.626 1.585,3.708 2.829,7.992 7.047,9.534 0.885,0.323 1.69,1.295 1.31,2.306 -0.756,2.01 2.664,7.435 3.464,9.214 0.933,2.074 1.759,4.749 3.391,6.397 1.732,1.748 4.339,1.899 6.054,3.671 1.73,1.787 2.292,4.299 4.135,6.073 3.56,3.426 8.826,4.575 13.198,6.624 4.764,2.234 8.741,5.515 12.032,9.598 -1.044,0.276 -2.089,0.552 -3.134,0.827 3.183,-7.97 11.223,-4.05 17.559,-4.757 4.124,-0.46 7.061,-3.88 11.428,-2.712 2.753,0.736 4.672,1.286 7.598,-0.041 1.511,-0.685 2.538,-1.549 4.218,-1.89 2.423,-0.492 4.215,-0.242 6.455,-1.548 1.356,-0.79 2.615,-1.81 4.124,-2.313 1.754,-0.584 3.627,-0.477 5.423,-0.913 2.238,-0.544 2.987,-1.648 4.993,-2.427 2.851,-1.108 5.155,-1.689 7.549,-3.848 1.156,-1.043 2.438,-1.494 3.784,-2.232 1.059,-0.58 6.75,-5.617 5.733,-7.136 -1.348,-2.01 1.899,-3.89 3.238,-1.893"
         style="fill:#231f20;fill-opacity:1;fill-rule:nonzero;stroke:none"
         id="path778" /><path
         d="m 234.36554,314.69916 c 4.991,0.468 7.902,-2.459 9.023,-7.099 0.476,-1.968 0.958,-3.034 2.13,-4.637 2.267,-3.103 2.813,-6.285 3.631,-10.001 0.836,-3.796 1.976,-7.695 1.915,-11.61 -0.047,-3.092 -1.203,-6.053 -0.845,-9.161 0.376,-3.284 1.92,-6.409 2.536,-9.669 1.467,-7.774 0.634,-15.8 -0.694,-23.524 -0.406,-2.36 3.207,-3.374 3.616,-0.996 1.452,8.437 2.293,17.032 0.694,25.517 -0.96,5.089 -2.814,8.548 -1.994,13.858 0.605,3.93 0.285,7.55 -0.485,11.433 -0.844,4.259 -1.363,9.356 -2.996,13.378 -0.302,0.742 -0.718,1.389 -1.134,2.062 -1.065,1.729 -2.044,3.045 -2.869,5.24 -2.108,5.61 -6.065,9.565 -12.528,8.959 -2.383,-0.223 -2.406,-3.975 0,-3.75"
         style="fill:#231f20;fill-opacity:1;fill-rule:nonzero;stroke:none"
         id="path782" /><path
         d="m 102.14434,232.01465 c 0.787,-1.906 1.603,-3.377 2.171,-5.337 0.492,-1.692 1.39,-3.401 1.829,-5.173 0.674,-2.717 1.464,-4.556 2.875,-6.99 0.834,-1.44 1.743,-3.854 3.112,-4.698 -0.337,0.208 -0.582,3.934 -0.687,4.512 -0.312,1.724 -0.567,3.413 -0.504,5.169 0.136,3.771 0.864,7.684 2.206,11.216 1.417,3.728 2.164,7.575 2.518,11.536 0.331,3.703 1.793,7.223 1.98,10.932 0.158,3.114 -1.947,8.079 -2.178,11.298 -0.173,2.403 -0.017,4.079 1.174,6.164 1.25,2.19 2.591,4.317 3.704,6.566 1.389,2.811 3.209,5.403 4.379,8.312 0.523,1.299 0.855,3.63 1.796,4.663 1.04,1.141 2.703,0.568 4.183,0.497 2.881,-0.137 5.196,-0.118 7.443,1.675 1.93,1.54 3.994,3.281 6.425,4.005 3.251,0.968 6.662,0.195 9.99,0.493 5.515,0.494 12.395,2.806 16.585,6.541 2.207,-0.923 0.544,-2.677 0.451,-3.737 1.099,0.433 2.059,1.115 3.061,1.738 0.688,-1.96 -0.555,-5.549 -3.18,-6.924 1.875,-0.169 7.704,2.174 9.255,3.152 1.978,1.246 3.579,2.765 5.253,4.393 1.664,1.62 3.197,3.444 4.826,4.997 1.791,1.708 5.543,1.698 7.704,0.916 4.123,-1.494 8.165,-3.418 12.594,-3.749 -0.04,-1.368 -1.158,-1.905 -2.298,-2.342 2.359,-0.56 4.722,-0.98 7.144,-1.009 0.148,-1.7 -1.554,-2.721 -2.444,-3.823 5.659,-2.186 11.97,-0.307 17.133,2.174 -0.189,-2.173 2.402,-6.04 3.462,-8.174 0.876,-1.763 1.57,-3.61 2.333,-5.43 1.47,-3.502 2.679,-6.648 2.875,-10.427 0.256,-4.904 -0.294,-9.704 -0.837,-14.469 -0.243,-2.136 1.885,-5.135 2.713,-7.154 0.643,-1.565 1.144,-3.239 1.658,-4.85 1.022,-3.214 1.526,-6.519 2.361,-9.803 0.901,-3.544 1.836,-7.315 1.935,-10.981 0.08,-2.995 0.663,-9.788 0.5,-12.715 2.191,4.593 3.41,11.537 4.514,14.755 0.862,2.509 1.809,4.723 2.216,7.372 0.901,5.872 1.437,11.421 1.437,17.376 0,4.357 -2.005,8.813 -3.042,12.999 -1.142,4.618 -1.066,8.562 -0.32,13.268 1.006,6.348 0.115,12.212 -2.43,18.066 -2.186,5.024 -4.125,10.507 -7.671,14.805 -1.31,1.587 -3.038,2.068 -4.889,2.779 -2.19,0.841 -2.847,1.325 -3.969,3.274 -2.049,3.556 -4.747,6.228 -7.846,8.642 -3.494,2.721 -8.756,4.818 -12.828,6.501 -3.353,1.387 -7.005,2.387 -10.13,4.239 -1.557,0.923 -2.724,1.812 -4.456,2.302 -4.218,1.193 -9.106,2.239 -13.491,2.714 -3.721,0.403 -7.519,-0.206 -11.248,0.077 -5.65,0.43 -11.179,2.833 -16.853,2.834 -3.005,0 -3.66,-0.607 -5.66,-3.167 -3.058,-3.914 -6.456,-4.519 -11.398,-5.756 -4.345,-1.087 -8.107,-4.238 -10.989,-8.087 -1.016,-1.357 -1.736,-2.845 -3.018,-4.005 -1.222,-1.106 -2.752,-1.744 -3.961,-2.846 -3.327,-3.032 -5.93,-8.63 -7.635,-12.806 -1.082,-2.652 -4.708,-5.517 -6.101,-8.007 -3.364,-6.019 -4.91,-11.45 -7.342,-18 -1.679,-4.52 -3.695,-8.951 -3.889,-13.866 -0.182,-4.591 -0.134,-9.271 0.666,-13.794 0.66,-3.73 1.274,-8.106 1.98,-11.794 0.583,-3.044 1.052,-6.011 2,-8.966 0.448,-1.393 0.286,-2.698 0.853,-4.073"
         style="fill:#231f20;fill-opacity:1;fill-rule:nonzero;stroke:none"
         id="path786" /><path
         d="m 96.798144,219.34175 c -0.079,0.84 -0.109,1.693 -0.089,2.555 0.088,0.849 0.22,1.689 0.411,2.541 0.254,0.833 0.609,1.791 1.484,2.528 0.428,0.348 0.946,0.617 1.561996,0.708 0.606,0.106 1.345,-0.073 1.834,-0.396 0.479,-0.345 0.783,-0.726 1.049,-1.039 l 0.802,-0.966 c 0.53,-0.648 1.051,-1.302 1.563,-1.962 0.47,-0.697 0.929,-1.399 1.379,-2.106 0.395,-0.751 0.778,-1.505 1.151,-2.261 -0.632,0.559 -1.27,1.108 -1.914,1.647 -0.588,0.583 -1.185,1.157 -1.788,1.723 -0.561,0.6 -1.13,1.193 -1.706,1.778 -0.561,0.544 -1.216,1.283 -1.636,1.518 -0.194,0.146 -0.305,0.19 -0.524,0.194 -0.21,-0.001 -0.472996,-0.089 -0.700996,-0.241 -0.453,-0.289 -0.828,-0.909 -1.108,-1.625 -0.342,-0.716 -0.646,-1.477 -0.908,-2.246 -0.329,-0.757 -0.617,-1.542 -0.861,-2.35"
         style="fill:#231f20;fill-opacity:1;fill-rule:nonzero;stroke:none"
         id="path790" /><path
         d="m 109.39284,209.72265 -0.386,-1.936 -0.573,-1.845 c -0.228,-0.587 -0.538,-1.231 -0.563,-1.6 -0.015,-0.351 0.103,-0.58 0.446,-0.919 0.284,-0.381 0.756,-0.775 1.252,-1.219 0.511,-0.445 1.033,-1.024 1.394,-1.632 0.334,-0.642 0.551,-1.326 0.663,-2.01 0.046,-0.705 -0.03,-1.396 -0.206,-2.028 -0.151,0.641 -0.402,1.229 -0.73,1.744 -0.261,0.533 -0.597,1.016 -0.993,1.421 -0.355,0.449 -0.741,0.786 -1.233,1.126 -0.496,0.354 -1.074,0.702 -1.643,1.275 -0.252,0.313 -0.497,0.698 -0.637,1.161 -0.141,0.456 -0.156,0.98 -0.044,1.421 0.248,0.884 0.623,1.346 0.912,1.92 l 1.077,1.605 z"
         style="fill:#231f20;fill-opacity:1;fill-rule:nonzero;stroke:none"
         id="path794" /><path
         d="m 249.45044,217.33105 1.376,-1.405 1.197,-1.509 c 0.334,-0.533 0.744,-1.022 1.048,-1.817 0.145,-0.387 0.226,-0.883 0.161,-1.357 -0.06,-0.468 -0.22,-0.869 -0.384,-1.21 -0.414,-0.643 -0.761,-1.062 -1.107,-1.595 -0.343,-0.511 -0.671,-1.035 -0.979,-1.572 -0.358,-0.512 -0.7,-1.039 -1.024,-1.58 -0.39,-0.515 -0.763,-1.048 -1.12,-1.598 0.048,0.654 0.119,1.312 0.216,1.972 0.16,0.633 0.344,1.264 0.55,1.89 0.255,0.602 0.533,1.196 0.831,1.781 0.281,0.574 0.663,1.198 0.88,1.658 0.282,0.466 0.374,0.668 0.29,1.092 -0.084,0.421 -0.406,0.994 -0.687,1.567 l -0.714,1.79 z"
         style="fill:#231f20;fill-opacity:1;fill-rule:nonzero;stroke:none"
         id="path798" /><path
         d="m 251.50324,224.04195 c 0.217,1.8 0.544,3.597 0.99,5.375 0.255,0.878 0.538,1.749 0.849,2.612 0.155,0.433 0.315,0.857 0.488,1.292 0.19,0.461 0.421,0.916 0.764,1.354 0.349,0.412 0.855,0.875 1.615,0.982 0.366,0.046 0.748,-0.011 1.074,-0.147 0.322,-0.135 0.575,-0.32 0.787,-0.501 0.805,-0.701 1.376,-1.584 1.776,-2.51 0.784,-1.87 0.908,-3.805 1.011,-5.626 0.03,-3.625 -0.01,-7.249 -0.12,-10.869 -0.11,-1.81 -0.237,-3.617 -0.38,-5.423 -0.214,-1.804 -0.446,-3.603 -0.694,-5.399 -0.078,1.811 -0.173,3.621 -0.285,5.426 -0.043,1.805 -0.103,3.609 -0.18,5.41 -0.043,3.602 -0.156,7.202 -0.337,10.796 -0.017,1.77 -0.087,3.517 -0.651,5.022 -0.28,0.742 -0.695,1.427 -1.233,1.94 -0.266,0.248 -0.424,0.306 -0.584,0.302 -0.154,0 -0.406,-0.143 -0.64,-0.403 -0.244,-0.249 -0.47,-0.583 -0.66,-0.939 l -0.597,-1.19 c -0.386,-0.803 -0.748,-1.619 -1.084,-2.447 -0.739,-1.634 -1.375,-3.325 -1.909,-5.057"
         style="fill:#231f20;fill-opacity:1;fill-rule:nonzero;stroke:none"
         id="path802" /><path
         d="m 162.28444,215.93645 c -0.331,-0.752 -0.662,-1.505 -0.931,-2.26 -0.327,-0.717 -0.599,-1.447 -0.759,-2.171 -0.426,-1.402 -0.412,-2.909 0.231,-4.006 0.495,-1.184 1.644,-2.181 2.985,-2.628 0.662,-0.284 1.4,-0.453 2.164,-0.514 0.767,-0.131 1.579,-0.154 2.397,-0.081 -0.726,-0.386 -1.513,-0.697 -2.356,-0.897 -0.846,-0.129 -1.732,-0.142 -2.622,0.011 -1.752,0.414 -3.414,1.509 -4.36,3.227 -0.811,1.831 -0.536,3.805 0.118,5.404 0.385,0.795 0.862,1.502 1.371,2.16 0.569,0.623 1.166,1.19 1.762,1.755"
         style="fill:#231f20;fill-opacity:1;fill-rule:nonzero;stroke:none"
         id="path806" /><path
         d="m 195.53444,215.93645 c 0.597,-0.565 1.193,-1.132 1.762,-1.755 0.509,-0.658 0.986,-1.365 1.371,-2.16 0.654,-1.599 0.929,-3.573 0.119,-5.404 -0.946,-1.718 -2.608,-2.813 -4.36,-3.227 -0.891,-0.153 -1.777,-0.14 -2.622,-0.011 -0.844,0.2 -1.631,0.511 -2.357,0.897 0.818,-0.073 1.63,-0.05 2.398,0.081 0.763,0.061 1.501,0.23 2.164,0.514 1.34,0.447 2.489,1.444 2.984,2.628 0.644,1.097 0.657,2.604 0.231,4.006 -0.16,0.724 -0.431,1.454 -0.759,2.171 -0.269,0.755 -0.6,1.508 -0.931,2.26"
         style="fill:#231f20;fill-opacity:1;fill-rule:nonzero;stroke:none"
         id="path810" /><path
         d="m 165.02764,205.16305 c 0.781,1.101 2.274,1.597 3.675,1.57 1.436,-0.077 2.765,-0.692 3.939,-1.331 1.156,-0.693 2.207,-1.443 3.298,-1.938 1.088,-0.504 2.234,-0.774 3.223,-0.564 1.007,0.113 1.991,0.75 2.968,1.555 0.984,0.791 1.983,1.75 3.291,2.418 1.33,0.61 2.789,0.801 4.171,0.634 1.379,-0.236 2.663,-0.834 3.645,-1.714 -1.17,0.61 -2.471,0.835 -3.697,0.737 -1.224,-0.028 -2.418,-0.381 -3.389,-1.012 -1.003,-0.581 -1.876,-1.495 -2.866,-2.402 -0.975,-0.892 -2.187,-1.885 -3.8,-2.187 -1.616,-0.221 -3.105,0.301 -4.333,0.956 -1.255,0.67 -2.29,1.517 -3.335,2.226 -1.015,0.756 -2.055,1.421 -3.235,1.657 -1.153,0.305 -2.525,0.256 -3.555,-0.605"
         style="fill:#231f20;fill-opacity:1;fill-rule:nonzero;stroke:none"
         id="path814" /><path
         d="m 147.72784,178.09865 c 2.556,1.054 5.212,1.908 7.934,2.527 2.73,0.568 5.51,0.9 8.301,1.066 2.789,0.11 5.602,0.015 8.366,-0.198 2.755,-0.198 5.482,-0.411 8.159,-0.285 1.345,0.017 2.649,0.139 3.994,0.346 1.343,0.203 2.728,0.457 4.156,0.579 2.849,0.223 5.581,0.145 8.355,0.178 2.769,-0.058 5.548,-0.154 8.316,-0.401 2.765,-0.309 5.513,-0.782 8.191,-1.468 -2.743,0.364 -5.496,0.505 -8.245,0.483 -2.744,0.059 -5.491,-0.033 -8.241,-0.162 -2.744,-0.108 -5.544,-0.115 -8.196,-0.4 -1.321,-0.15 -2.648,-0.43 -4.027,-0.678 -1.377,-0.254 -2.825,-0.432 -4.24,-0.486 -2.847,-0.052 -5.633,0.251 -8.374,0.524 -2.734,0.29 -5.445,0.456 -8.178,0.427 -2.727,0.023 -5.463,-0.115 -8.174,-0.49 -2.725,-0.289 -5.433,-0.816 -8.097,-1.562"
         style="fill:#231f20;fill-opacity:1;fill-rule:nonzero;stroke:none"
         id="path818" /><path
         d="m 150.01834,178.79785 c 2.407,-1.435 4.578,-3.248 6.88,-4.784 1.137,-0.816 2.25,-1.628 3.436,-2.231 1.171,-0.616 2.427,-0.903 3.766,-1.028 5.425,-0.564 11.002,0.091 16.595,0.281 l 8.372,0.157 4.187,0.078 c 1.402,0.029 2.764,0.029 4.044,0.265 2.584,0.415 5.013,1.795 7.079,3.563 2.13,1.727 3.959,3.864 5.769,5.989 -1.55,-2.321 -3.11,-4.663 -5.104,-6.716 -2.031,-1.983 -4.52,-3.673 -7.442,-4.354 -1.463,-0.31 -2.909,-0.341 -4.292,-0.41 l -4.183,-0.194 -8.365,-0.387 c -5.553,-0.028 -11.165,-0.548 -16.862,0.2 -1.424,0.223 -2.916,0.674 -4.174,1.453 -1.259,0.754 -2.348,1.675 -3.422,2.557 -2.149,1.832 -4.063,3.858 -6.284,5.561"
         style="fill:#231f20;fill-opacity:1;fill-rule:nonzero;stroke:none"
         id="path822" /><path
         d="m 223.92804,243.02825 c -1.007,-0.48 -2.038,-0.927 -3.105,-1.29 -1.075,-0.336 -2.176,-0.589 -3.283,-0.795 -2.231,-0.357 -4.511,-0.428 -6.771,-0.22 -1.192,0.166 -2.354,0.433 -3.529,0.645 l 0.087,-0.008 h -0.009 l -0.054,0.001 -0.035,0.008 -3.046,0.71 c -1.075,0.272 -2.152,0.524 -3.241,0.703 -1.039,0.21 -2.095,0.34 -3.163,0.375 l -0.003,0.001 -0.138,0.01 0.142,0.01 h -0.002 c 1.062,0.121 2.145,0.148 3.222,0.09 1.122,-0.089 2.236,-0.253 3.34,-0.436 l 3.067,-0.605 -0.089,0.009 h 0.009 l 0.024,10e-4 0.065,-0.01 c 1.157,-0.166 2.31,-0.39 3.463,-0.511 2.167,-0.276 4.375,-0.286 6.554,-0.015 1.097,0.11 2.187,0.266 3.265,0.507 1.087,0.201 2.163,0.49 3.23,0.82"
         style="fill:#231f20;fill-opacity:1;fill-rule:nonzero;stroke:none"
         id="path826" /><path
         d="m 218.74834,244.09815 c 0,-0.97 -0.311,-1.88 -0.86,-2.66 -2.63,-0.45 -5.33,-0.5 -7.98,-0.15 -0.98,0.13 -1.96,0.31 -2.931,0.51 h -0.009 c -0.41,0.69 -0.63,1.47 -0.63,2.3 0,1.27 0.53,2.44 1.43,3.35 3.38,0.44 6.919,-0.21 10.14,-1.42 0.16,-0.06 0.319,-0.12 0.48,-0.18 v -0.01 c 0.24,-0.54 0.36,-1.13 0.36,-1.74"
         style="fill:#231f20;fill-opacity:1;fill-rule:nonzero;stroke:none"
         id="path830" /><path
         d="m 209.76394,245.87795 c 0,-0.506 -0.411,-0.917 -0.917,-0.917 -0.506,0 -0.917,0.411 -0.917,0.917 0,0.506 0.411,0.917 0.917,0.917 0.506,0 0.917,-0.411 0.917,-0.917"
         style="fill:#ffffff;fill-opacity:1;fill-rule:nonzero;stroke:none"
         id="path834" /><path
         d="m 226.81764,240.60835 c -1.288,0.473 -2.545,1.081 -3.734,1.831 l -0.04,0.035 -0.011,0.009 0.325,-0.135 -0.01,-0.001 -0.11,-0.012 -0.176,0.111 -0.195,0.124 c -1.205,0.862 -2.302,1.737 -3.553,2.188 -0.28,0.122 -0.57,0.235 -0.868,0.344 l -0.484,0.176 -0.016,0.56 v 0.01 l 0.514,-0.742 c -2.373,0.852 -4.802,1.395 -7.245,1.456 -1.363,0.106 -2.751,0.063 -4.085,-0.176 -1.346,-0.238 -2.634,-0.696 -3.917,-1.293 -1.308,-0.541 -2.611,-1.193 -3.964,-1.77 -0.44,-0.167 -0.889,-0.318 -1.337,-0.461 l -0.1,-0.031 -0.034,0.003 -0.01,0.002 0.132,0.027 c -0.959,-0.296 -1.944,-0.526 -2.932,-0.605 0.945,0.298 1.825,0.728 2.668,1.215 l 0.027,0.015 0.105,0.012 0.01,0.001 -0.133,-0.028 c 0.394,0.234 0.781,0.47 1.163,0.724 1.234,0.724 2.434,1.535 3.724,2.276 1.306,0.695 2.738,1.297 4.233,1.643 1.502,0.352 3.029,0.477 4.555,0.441 2.689,-0.21 5.295,-0.957 7.696,-1.968 l 0.529,-0.222 -0.014,-0.519 -0.001,-0.01 -0.5,0.736 c 0.31,-0.133 0.623,-0.274 0.934,-0.429 1.414,-0.739 2.479,-1.862 3.513,-2.818 l 0.157,-0.157 -0.286,0.099 0.01,-0.001 0.239,-0.027 0.086,-0.108 0.009,-0.011 -0.039,0.034 c 0.947,-0.947 2.013,-1.801 3.165,-2.548"
         style="fill:#231f20;fill-opacity:1;fill-rule:nonzero;stroke:none"
         id="path838" /><path
         d="m 197.55404,245.67285 c 0.962,0.884 2.043,1.65 3.207,2.284 1.179,0.6 2.426,1.072 3.71,1.416 2.583,0.64 5.277,0.753 7.914,0.512 2.635,-0.332 5.199,-0.944 7.693,-1.846 1.231,-0.491 2.433,-1.09 3.509,-1.877 1.062,-0.805 1.966,-1.82 2.575,-2.976 -0.752,1.072 -1.744,1.93 -2.849,2.57 -1.083,0.679 -2.275,1.171 -3.494,1.559 -2.434,0.801 -4.993,1.334 -7.538,1.577 -2.542,0.308 -5.135,0.277 -7.637,-0.265 -1.257,-0.242 -2.492,-0.61 -3.677,-1.11 -1.198,-0.472 -2.349,-1.086 -3.413,-1.844"
         style="fill:#231f20;fill-opacity:1;fill-rule:nonzero;stroke:none"
         id="path842" /><path
         d="m 191.88994,256.74896 c 3.055,2.558 6.634,4.175 10.362,5.26 1.869,0.546 3.807,0.853 5.77,0.926 1.965,0.06 3.942,-0.071 5.912,-0.248 3.967,-0.369 7.821,-1.322 11.35,-3.27 3.45,-1.985 6.288,-4.874 8.034,-8.259 0.063,-0.124 0.014,-0.275 -0.109,-0.339 -0.106,-0.055 -0.235,-0.025 -0.309,0.063 -2.378,2.841 -5.393,5.027 -8.711,6.202 -1.635,0.622 -3.362,0.965 -5.123,1.211 -1.79,0.258 -3.494,0.361 -5.269,0.296 -1.762,-0.059 -3.523,-0.345 -5.273,-0.655 -1.752,-0.314 -3.507,-0.583 -5.301,-0.765 -3.594,-0.386 -7.209,-0.856 -11.157,-0.89 -0.147,-0.003 -0.268,0.114 -0.271,0.26 -0.001,0.082 0.037,0.158 0.095,0.208"
         style="fill:#231f20;fill-opacity:1;fill-rule:nonzero;stroke:none"
         id="path846" /><path
         d="m 151.48464,239.30805 c 1.01,-0.359 2.418,0.219 3.472,0.437 1.117,0.23 2.239,0.433 3.355,0.666 0.549,0.114 1.127,0.286 1.67,0.346 0.574,0.063 1.586,-0.058 2.032,0.246 -0.574,1.003 -2.172,1.634 -3.211,2.004 -0.587,0.209 -1.211,0.322 -1.819,0.442 -1.848,0.366 -3.752,0.891 -5.632,1.061 -1.712,0.154 -3.495,-0.001 -5.215,0.006 -1.045,0.004 -2.126,-0.24 -3.102,-0.616 -1.298,-0.499 -2.498,-0.991 -3.591,-1.85 -0.484,-0.382 -1.673,-0.913 -1.649,-1.601 0.449,-0.355 1.065,-0.448 1.595,-0.634 0.678,-0.239 1.331,-0.539 2.039,-0.692 0.867,-0.186 1.785,-0.385 2.673,-0.357 0.869,0.026 1.719,0.213 2.596,0.209 0.769,-0.005 1.539,0 2.309,0 0.765,0 1.805,-0.092 2.478,0.333"
         style="fill:#ffffff;fill-opacity:1;fill-rule:nonzero;stroke:none"
         id="path850" /><path
         d="m 162.90804,240.79445 -0.138,-0.01 h -0.003 c -1.068,-0.035 -2.124,-0.164 -3.163,-0.374 -1.089,-0.179 -2.166,-0.431 -3.241,-0.703 l -3.046,-0.711 -0.035,-0.008 -0.054,-0.001 -0.01,-0.001 0.088,0.01 c -1.175,-0.213 -2.337,-0.48 -3.529,-0.646 -2.26,-0.209 -4.54,-0.139 -6.771,0.217 -1.107,0.206 -2.209,0.459 -3.283,0.796 -1.067,0.364 -2.098,0.811 -3.105,1.291 1.067,-0.329 2.143,-0.618 3.23,-0.818 1.078,-0.241 2.168,-0.396 3.266,-0.507 2.178,-0.272 4.385,-0.263 6.553,0.013 1.153,0.12 2.306,0.344 3.463,0.511 l 0.065,0.009 h 0.023 l 0.01,-0.001 -0.089,-0.008 3.067,0.604 c 1.104,0.183 2.218,0.347 3.339,0.436 1.078,0.058 2.161,0.032 3.223,-0.089 h -0.002 z"
         style="fill:#231f20;fill-opacity:1;fill-rule:nonzero;stroke:none"
         id="path854" /><path
         d="m 141.44804,241.72455 c 0,-0.97 0.31,-1.88 0.86,-2.66 2.63,-0.45 5.33,-0.5 7.98,-0.15 0.98,0.13 1.96,0.31 2.93,0.51 h 0.01 c 0.41,0.69 0.63,1.47 0.63,2.3 0,1.27 -0.53,2.44 -1.43,3.35 -3.38,0.44 -6.92,-0.21 -10.14,-1.42 -0.16,-0.06 -0.32,-0.12 -0.48,-0.18 v -0.01 c -0.24,-0.54 -0.36,-1.13 -0.36,-1.74"
         style="fill:#231f20;fill-opacity:1;fill-rule:nonzero;stroke:none"
         id="path858" /><path
         d="m 142.17164,242.58735 c 0,-0.506 0.411,-0.917 0.917,-0.917 0.506,0 0.916,0.411 0.916,0.917 0,0.506 -0.41,0.917 -0.916,0.917 -0.506,0 -0.917,-0.411 -0.917,-0.917"
         style="fill:#ffffff;fill-opacity:1;fill-rule:nonzero;stroke:none"
         id="path862" /><path
         d="m 165.57794,239.88475 c -0.987,0.081 -1.972,0.311 -2.931,0.607 l 0.131,-0.027 -0.01,-0.001 -0.034,-0.004 -0.098,0.031 c -0.449,0.144 -0.897,0.295 -1.337,0.461 -1.353,0.578 -2.656,1.23 -3.963,1.771 -1.284,0.596 -2.572,1.054 -3.918,1.292 -1.335,0.238 -2.723,0.281 -4.087,0.174 -2.442,-0.062 -4.87,-0.606 -7.243,-1.459 l 0.515,0.745 v -0.01 l -0.014,-0.561 -0.488,-0.178 c -0.296,-0.109 -0.586,-0.221 -0.867,-0.343 -1.251,-0.452 -2.347,-1.326 -3.552,-2.188 l -0.196,-0.124 -0.178,-0.113 -0.11,0.013 -0.01,10e-4 0.328,0.136 -0.012,-0.009 -0.039,-0.035 c -1.191,-0.75 -2.448,-1.357 -3.737,-1.829 1.152,0.747 2.217,1.603 3.163,2.551 l -0.039,-0.035 0.009,0.011 0.087,0.108 0.24,0.028 0.01,0.001 -0.287,-0.1 0.156,0.158 c 1.034,0.956 2.1,2.079 3.513,2.818 0.311,0.156 0.624,0.297 0.935,0.429 l -0.502,-0.739 v 0.01 l -0.014,0.522 0.53,0.222 c 2.402,1.01 5.008,1.756 7.697,1.964 1.527,0.037 3.054,-0.09 4.555,-0.442 1.495,-0.346 2.927,-0.949 4.232,-1.644 1.29,-0.741 2.49,-1.551 3.723,-2.276 0.383,-0.253 0.771,-0.49 1.165,-0.723 l -0.133,0.028 0.01,-0.001 0.105,-0.011 0.027,-0.016 c 0.843,-0.485 1.724,-0.916 2.668,-1.213"
         style="fill:#231f20;fill-opacity:1;fill-rule:nonzero;stroke:none"
         id="path866" /><path
         d="m 162.99244,243.29925 c -1.064,0.758 -2.215,1.372 -3.414,1.844 -1.185,0.5 -2.419,0.868 -3.676,1.11 -2.503,0.542 -5.095,0.573 -7.637,0.265 -2.545,-0.243 -5.105,-0.776 -7.538,-1.577 -1.22,-0.388 -2.412,-0.88 -3.494,-1.559 -1.106,-0.64 -2.098,-1.498 -2.85,-2.57 0.61,1.156 1.514,2.17 2.576,2.976 1.076,0.787 2.278,1.386 3.509,1.877 2.493,0.902 5.057,1.514 7.692,1.846 2.637,0.241 5.331,0.128 7.915,-0.512 1.284,-0.344 2.531,-0.816 3.709,-1.416 1.164,-0.634 2.246,-1.4 3.208,-2.284"
         style="fill:#231f20;fill-opacity:1;fill-rule:nonzero;stroke:none"
         id="path870" /><path
         d="m 164.04524,255.17335 c -3.91,-0.553 -7.555,-0.625 -11.166,-0.778 -1.801,-0.087 -3.576,-0.081 -5.355,-0.032 -1.777,0.048 -3.561,0.068 -5.313,-0.135 -1.764,-0.199 -3.434,-0.555 -5.166,-1.076 -1.706,-0.505 -3.361,-1.1 -4.886,-1.958 -3.107,-1.656 -5.763,-4.265 -7.693,-7.427 -0.071,-0.119 -0.226,-0.158 -0.345,-0.087 -0.102,0.062 -0.145,0.187 -0.109,0.297 1.224,3.607 3.601,6.885 6.718,9.362 3.2,2.45 6.87,3.965 10.738,4.919 1.921,0.468 3.857,0.892 5.809,1.124 1.952,0.22 3.914,0.204 5.843,-0.058 3.848,-0.519 7.628,-1.586 11.029,-3.662 0.125,-0.076 0.164,-0.239 0.088,-0.364 -0.043,-0.07 -0.117,-0.114 -0.192,-0.125"
         style="fill:#231f20;fill-opacity:1;fill-rule:nonzero;stroke:none"
         id="path874" /></g></g></svg>
